<svg width="552" height="59" viewBox="0 0 552 59" fill="none" xmlns="http://www.w3.org/2000/svg">
<path d="M43.8125 42.8125C43.8125 44.4694 42.4694 45.8125 40.8125 45.8125H32.6875C31.0306 45.8125 29.6875 44.4694 29.6875 42.8125V14.25C29.6875 12.5931 28.3444 11.25 26.6875 11.25H17.125C15.4681 11.25 14.125 12.5931 14.125 14.25V42.8125C14.125 44.4694 12.7819 45.8125 11.125 45.8125H3C1.34315 45.8125 0 44.4694 0 42.8125V3C0 1.34314 1.34315 0 3 0H40.8125C42.4694 0 43.8125 1.34315 43.8125 3V42.8125Z" fill="#0A0A0A"/>
<path d="M47.7887 58.4375C46.1319 58.4375 44.7887 57.0944 44.7887 55.4375V15.625C44.7887 13.9681 46.1319 12.625 47.7887 12.625H55.4228C56.1254 12.625 56.695 13.1946 56.695 13.8972C56.695 15.1006 58.2603 15.6667 59.1503 14.8567C59.8736 14.1984 60.5655 13.6941 61.2262 13.3438C63.0804 12.3646 65.1325 11.875 67.3825 11.875C71.82 11.875 75.2471 13.5729 77.6637 16.9688C80.1012 20.3646 81.32 24.5625 81.32 29.5625C81.32 35.0833 79.9971 39.3021 77.3512 42.2188C74.7054 45.1146 71.3617 46.5625 67.32 46.5625C65.3617 46.5625 63.57 46.2292 61.945 45.5625C60.1738 44.8264 57.6325 45.9482 57.6325 47.8663V55.4375C57.6325 57.0944 56.2894 58.4375 54.6325 58.4375H47.7887ZM57.5387 29.3125C57.5387 31.9375 58.0908 33.8854 59.195 35.1562C60.2992 36.4271 61.695 37.0625 63.3825 37.0625C64.8617 37.0625 66.1012 36.4583 67.1012 35.25C68.1012 34.0208 68.6012 31.9479 68.6012 29.0312C68.6012 26.3438 68.0804 24.375 67.0387 23.125C65.9971 21.8542 64.7262 21.2188 63.2262 21.2188C61.6012 21.2188 60.2471 21.8542 59.1637 23.125C58.0804 24.3958 57.5387 26.4583 57.5387 29.3125Z" fill="#0A0A0A"/>
<path d="M78.1712 29.3125C78.1712 24.25 79.8796 20.0833 83.2962 16.8125C86.7129 13.5208 91.3275 11.875 97.14 11.875C103.786 11.875 108.807 13.8021 112.202 17.6562C114.932 20.7604 116.296 24.5833 116.296 29.125C116.296 34.2292 114.598 38.4167 111.202 41.6875C107.827 44.9375 103.15 46.5625 97.1712 46.5625C91.8379 46.5625 87.5254 45.2083 84.2337 42.5C80.1921 39.1458 78.1712 34.75 78.1712 29.3125ZM90.9212 29.2812C90.9212 32.2396 91.515 34.4271 92.7025 35.8438C93.9108 37.2604 95.4212 37.9688 97.2337 37.9688C99.0671 37.9688 100.567 37.2708 101.734 35.875C102.921 34.4792 103.515 32.2396 103.515 29.1562C103.515 26.2812 102.921 24.1458 101.734 22.75C100.546 21.3333 99.0775 20.625 97.3275 20.625C95.4733 20.625 93.9421 21.3438 92.7337 22.7812C91.5254 24.1979 90.9212 26.3646 90.9212 29.2812Z" fill="#0A0A0A"/>
<path d="M149.716 25.1361C148.787 26.8216 148.911 30.1453 150.179 31.5938C151.345 32.9062 151.929 34.3646 151.929 35.9688C151.929 39.4271 150.272 42.0625 146.96 43.875C143.647 45.6875 138.814 46.5938 132.46 46.5938C127.127 46.5938 122.929 45.6146 119.866 43.6562C117.773 42.2945 116.08 40.4642 114.786 38.1655C113.844 36.4927 115.083 34.5489 116.991 34.3369L123.008 33.6683C124.39 33.5147 125.667 34.3877 126.618 35.4024C126.988 35.7977 127.425 36.174 127.929 36.5312C129.241 37.4271 130.731 37.875 132.397 37.875C136.668 37.875 138.804 36.8125 138.804 34.6875C138.804 33.9583 138.397 33.375 137.585 32.9375C136.772 32.4792 135.71 32.25 134.397 32.25H131.866C130.209 32.25 128.866 30.9069 128.866 29.25V28.7188C128.866 27.0619 130.209 25.7188 131.866 25.7188H134.522C135.627 25.7188 136.637 25.4896 137.554 25.0312C138.47 24.5729 138.929 23.9896 138.929 23.2812C138.929 22.4896 138.387 21.8438 137.304 21.3438C136.241 20.8438 134.752 20.5938 132.835 20.5938C130.96 20.5938 129.377 20.9896 128.085 21.7812C127.688 22.0179 127.336 22.2693 127.028 22.5355C125.931 23.4824 124.573 24.4207 123.138 24.2254L117.388 23.4434C115.557 23.1945 114.358 21.3408 115.25 19.7231C116.445 17.5561 118.088 15.8567 120.179 14.625C123.22 12.8125 127.418 11.9062 132.772 11.9062C138.335 11.9062 142.689 12.8125 145.835 14.625C149.002 16.4375 150.585 18.7292 150.585 21.5C150.585 22.8728 150.295 24.0848 149.716 25.1361Z" fill="#0A0A0A"/>
<path d="M153.561 58.4375C151.904 58.4375 150.561 57.0944 150.561 55.4375V15.625C150.561 13.9681 151.904 12.625 153.561 12.625H161.195C161.898 12.625 162.467 13.1946 162.467 13.8972C162.467 15.1006 164.033 15.6667 164.923 14.8567C165.646 14.1984 166.338 13.6941 166.999 13.3438C168.853 12.3646 170.905 11.875 173.155 11.875C177.592 11.875 181.02 13.5729 183.436 16.9688C185.874 20.3646 187.092 24.5625 187.092 29.5625C187.092 35.0833 185.77 39.3021 183.124 42.2188C180.478 45.1146 177.134 46.5625 173.092 46.5625C171.134 46.5625 169.342 46.2292 167.717 45.5625C165.946 44.8264 163.405 45.9482 163.405 47.8663V55.4375C163.405 57.0944 162.062 58.4375 160.405 58.4375H153.561ZM163.311 29.3125C163.311 31.9375 163.863 33.8854 164.967 35.1562C166.072 36.4271 167.467 37.0625 169.155 37.0625C170.634 37.0625 171.874 36.4583 172.874 35.25C173.874 34.0208 174.374 31.9479 174.374 29.0312C174.374 26.3438 173.853 24.375 172.811 23.125C171.77 21.8542 170.499 21.2188 168.999 21.2188C167.374 21.2188 166.02 21.8542 164.936 23.125C163.853 24.3958 163.311 26.4583 163.311 29.3125Z" fill="#0A0A0A"/>
<path d="M198.181 21.2668C197.323 22.365 196.12 23.2717 194.734 23.1256L188.266 22.4439C186.492 22.2569 185.221 20.5449 185.922 18.9042C186.215 18.2162 186.546 17.6127 186.913 17.0938C187.788 15.8646 189.038 14.8021 190.663 13.9062C191.829 13.2604 193.433 12.7604 195.475 12.4062C197.517 12.0521 199.725 11.875 202.1 11.875C205.913 11.875 208.975 12.0938 211.288 12.5312C213.6 12.9479 215.527 13.8333 217.069 15.1875C218.152 16.125 219.006 17.4583 219.631 19.1875C220.256 20.8958 220.569 22.5312 220.569 24.0938V38.75C220.569 40.3125 220.663 41.5417 220.85 42.4375C221.239 44.0693 220.212 45.8125 218.535 45.8125H211.982C210.897 45.8125 209.853 45.2457 209.43 44.2466C209.372 44.1094 209.324 43.9856 209.288 43.875C209.011 43.006 207.933 42.6154 207.216 43.1787C206.1 44.0556 204.988 44.7252 203.881 45.1875C201.631 46.1042 199.017 46.5625 196.038 46.5625C192.079 46.5625 189.069 45.6458 187.006 43.8125C184.965 41.9792 183.944 39.7188 183.944 37.0312C183.944 34.5104 184.683 32.4375 186.163 30.8125C187.642 29.1875 190.371 27.9792 194.35 27.1875C199.121 26.2292 202.215 25.5625 203.631 25.1875C204.465 24.9545 205.328 24.6819 206.219 24.3696C207.381 23.9623 208.237 22.8166 207.881 21.6375C207.72 21.1033 207.48 20.6824 207.163 20.375C206.517 19.75 205.381 19.4375 203.756 19.4375C201.673 19.4375 200.11 19.7708 199.069 20.4375C198.749 20.6428 198.453 20.9192 198.181 21.2668ZM208.131 32.0938C208.131 31.1038 207.15 30.4116 206.207 30.7112C205.055 31.0768 203.874 31.4126 202.663 31.7188C200.079 32.4062 198.444 33.0833 197.756 33.75C197.048 34.4375 196.694 35.2188 196.694 36.0938C196.694 37.0938 197.038 37.9167 197.725 38.5625C198.433 39.1875 199.465 39.5 200.819 39.5C202.235 39.5 203.548 39.1562 204.756 38.4688C205.985 37.7812 206.85 36.9479 207.35 35.9688C207.871 34.9688 208.131 33.6771 208.131 32.0938Z" fill="#0A0A0A"/>
<path d="M255.389 42.8125C255.389 44.4694 254.046 45.8125 252.389 45.8125H245.639C243.982 45.8125 242.639 44.4694 242.639 42.8125V38.8805C242.639 36.5512 240.046 35.0595 237.806 35.7007C236.018 36.2127 234.16 36.4688 232.232 36.4688C224.253 36.4688 220.264 32.2188 220.264 23.7188V15.6562C220.264 13.9994 221.607 12.6562 223.264 12.6562H229.982C231.639 12.6562 232.982 13.9994 232.982 15.6562V21.75C232.982 23.25 233.326 24.4271 234.014 25.2812C234.701 26.1354 235.66 26.5625 236.889 26.5625C238.927 26.5625 240.628 25.8489 241.991 24.4216C242.441 23.9509 242.639 23.3043 242.639 22.6534V15.6562C242.639 13.9994 243.982 12.6562 245.639 12.6562H252.389C254.046 12.6562 255.389 13.9994 255.389 15.6562V42.8125Z" fill="#0A0A0A"/>
<path d="M292.709 42.8125C292.709 44.4694 291.366 45.8125 289.709 45.8125H282.959C281.302 45.8125 279.959 44.4694 279.959 42.8125V36.2812C279.959 34.6244 278.616 33.2812 276.959 33.2812H271.396C269.739 33.2812 268.396 34.6244 268.396 36.2812V42.8125C268.396 44.4694 267.053 45.8125 265.396 45.8125H258.646C256.989 45.8125 255.646 44.4694 255.646 42.8125V15.6562C255.646 13.9994 256.989 12.6562 258.646 12.6562H265.396C267.053 12.6562 268.396 13.9994 268.396 15.6562V21C268.396 22.6569 269.739 24 271.396 24H276.959C278.616 24 279.959 22.6569 279.959 21V15.6562C279.959 13.9994 281.302 12.6562 282.959 12.6562H289.709C291.366 12.6562 292.709 13.9994 292.709 15.6562V42.8125Z" fill="#0A0A0A"/>
<path d="M306.341 21.4375C306.341 23.0944 307.684 24.4375 309.341 24.4375H312.154C321.966 24.4375 326.872 28.0208 326.872 35.1875C326.872 42.2708 322.091 45.8125 312.529 45.8125H296.591C294.934 45.8125 293.591 44.4694 293.591 42.8125V15.6562C293.591 13.9994 294.934 12.6562 296.591 12.6562H303.341C304.998 12.6562 306.341 13.9994 306.341 15.6562V21.4375ZM306.341 35.0938C306.341 36.6988 307.642 38 309.247 38H310.497C311.539 38 312.383 37.7604 313.029 37.2812C313.695 36.8021 314.029 36.1042 314.029 35.1875C314.029 33.1875 312.852 32.1875 310.497 32.1875H309.247C307.642 32.1875 306.341 33.4887 306.341 35.0938ZM330.497 15.625C330.497 13.9681 331.841 12.625 333.497 12.625H340.216C341.873 12.625 343.216 13.9681 343.216 15.625V42.8125C343.216 44.4694 341.873 45.8125 340.216 45.8125H333.497C331.841 45.8125 330.497 44.4694 330.497 42.8125V15.625Z" fill="#0A0A0A"/>
<path d="M380.505 30.9375C380.505 31.7314 379.861 32.375 379.068 32.375H358.361C356.571 32.375 355.076 33.9891 355.823 35.6151C356.059 36.1271 356.338 36.5679 356.661 36.9375C357.89 38.375 359.495 39.0938 361.474 39.0938C362.724 39.0938 363.911 38.7812 365.036 38.1562C365.4 37.9467 365.779 37.6524 366.172 37.2734C366.902 36.5697 367.864 36.1187 368.874 36.2119L375.131 36.7892C377.307 36.99 378.535 39.3903 377.076 41.0186C375.795 42.4496 374.385 43.5788 372.849 44.4062C370.14 45.8438 366.255 46.5625 361.193 46.5625C356.797 46.5625 353.338 45.9479 350.818 44.7188C348.297 43.4688 346.203 41.5 344.536 38.8125C342.89 36.1042 342.068 32.9271 342.068 29.2812C342.068 24.0938 343.724 19.8958 347.036 16.6875C350.37 13.4792 354.963 11.875 360.818 11.875C365.568 11.875 369.318 12.5938 372.068 14.0312C374.818 15.4688 376.911 17.5521 378.349 20.2812C379.786 23.0104 380.505 26.5625 380.505 30.9375ZM364.247 26.2812C366.024 26.2812 367.498 24.7041 366.853 23.0481C366.524 22.2 366.095 21.5173 365.568 21C364.505 19.9375 363.099 19.4062 361.349 19.4062C359.328 19.4062 357.713 20.2083 356.505 21.8125C356.234 22.1641 355.998 22.5762 355.796 23.0488C355.098 24.6873 356.588 26.2812 358.369 26.2812H364.247Z" fill="#0A0A0A"/>
<path d="M432.176 52.2812C432.176 53.9381 430.833 55.2812 429.176 55.2812H426.332C424.676 55.2812 423.332 53.9381 423.332 52.2812V48.8125C423.332 47.1556 421.989 45.8125 420.332 45.8125H395.176C393.519 45.8125 392.176 44.4694 392.176 42.8125V15.6562C392.176 13.9994 393.519 12.6562 395.176 12.6562H401.895C403.552 12.6562 404.895 13.9994 404.895 15.6562V33.5312C404.895 35.1881 406.238 36.5312 407.895 36.5312H411.582C413.239 36.5312 414.582 35.1881 414.582 33.5312V15.6562C414.582 13.9994 415.926 12.6562 417.582 12.6562H424.301C425.958 12.6562 427.301 13.9994 427.301 15.6562V34.0938C427.301 35.4399 428.393 36.5312 429.739 36.5312C431.085 36.5312 432.176 37.6226 432.176 38.9688V52.2812Z" fill="#0038FF"/>
<path d="M465.715 30.9375C465.715 31.7314 465.071 32.375 464.277 32.375H443.571C441.781 32.375 440.286 33.9891 441.033 35.6151C441.268 36.1271 441.548 36.5679 441.871 36.9375C443.1 38.375 444.705 39.0938 446.684 39.0938C447.934 39.0938 449.121 38.7812 450.246 38.1562C450.61 37.9467 450.989 37.6524 451.382 37.2734C452.112 36.5697 453.074 36.1187 454.084 36.2119L460.341 36.7892C462.517 36.99 463.745 39.3903 462.286 41.0186C461.005 42.4496 459.595 43.5788 458.059 44.4062C455.35 45.8438 451.465 46.5625 446.402 46.5625C442.007 46.5625 438.548 45.9479 436.027 44.7188C433.507 43.4688 431.413 41.5 429.746 38.8125C428.1 36.1042 427.277 32.9271 427.277 29.2812C427.277 24.0938 428.934 19.8958 432.246 16.6875C435.58 13.4792 440.173 11.875 446.027 11.875C450.777 11.875 454.527 12.5938 457.277 14.0312C460.027 15.4688 462.121 17.5521 463.559 20.2812C464.996 23.0104 465.715 26.5625 465.715 30.9375ZM449.457 26.2812C451.234 26.2812 452.708 24.7041 452.063 23.0481C451.734 22.2 451.305 21.5173 450.777 21C449.715 19.9375 448.309 19.4062 446.559 19.4062C444.538 19.4062 442.923 20.2083 441.715 21.8125C441.444 22.1641 441.208 22.5762 441.006 23.0488C440.308 24.6873 441.798 26.2812 443.579 26.2812H449.457Z" fill="#0038FF"/>
<path d="M501.379 42.8125C501.379 44.4694 500.036 45.8125 498.379 45.8125H491.629C489.972 45.8125 488.629 44.4694 488.629 42.8125V36.2812C488.629 34.6244 487.286 33.2812 485.629 33.2812H480.066C478.409 33.2812 477.066 34.6244 477.066 36.2812V42.8125C477.066 44.4694 475.723 45.8125 474.066 45.8125H467.316C465.659 45.8125 464.316 44.4694 464.316 42.8125V15.6562C464.316 13.9994 465.659 12.6562 467.316 12.6562H474.066C475.723 12.6562 477.066 13.9994 477.066 15.6562V21C477.066 22.6569 478.409 24 480.066 24H485.629C487.286 24 488.629 22.6569 488.629 21V15.6562C488.629 13.9994 489.972 12.6562 491.629 12.6562H498.379C500.036 12.6562 501.379 13.9994 501.379 15.6562V42.8125Z" fill="#0038FF"/>
<path d="M515.011 21.4375C515.011 23.0944 516.354 24.4375 518.011 24.4375H520.824C530.636 24.4375 535.542 28.0208 535.542 35.1875C535.542 42.2708 530.761 45.8125 521.199 45.8125H505.261C503.604 45.8125 502.261 44.4694 502.261 42.8125V15.6562C502.261 13.9994 503.604 12.6562 505.261 12.6562H512.011C513.668 12.6562 515.011 13.9994 515.011 15.6562V21.4375ZM515.011 35.0938C515.011 36.6988 516.312 38 517.917 38H519.167C520.209 38 521.053 37.7604 521.699 37.2812C522.365 36.8021 522.699 36.1042 522.699 35.1875C522.699 33.1875 521.522 32.1875 519.167 32.1875H517.917C516.312 32.1875 515.011 33.4887 515.011 35.0938ZM539.167 15.625C539.167 13.9681 540.511 12.625 542.167 12.625H548.886C550.543 12.625 551.886 13.9681 551.886 15.625V42.8125C551.886 44.4694 550.543 45.8125 548.886 45.8125H542.167C540.511 45.8125 539.167 44.4694 539.167 42.8125V15.625Z" fill="#0038FF"/>
</svg>
