<svg width="496" height="111" viewBox="0 0 496 111" fill="none" xmlns="http://www.w3.org/2000/svg">
<path d="M52.0312 53.5625C52.0312 55.2194 50.6881 56.5625 49.0312 56.5625H43.625C41.9681 56.5625 40.625 55.2194 40.625 53.5625V49.5938C40.625 47.9369 39.2819 46.5938 37.625 46.5938H14.375C12.7181 46.5938 11.375 47.9369 11.375 49.5938V53.5625C11.375 55.2194 10.0319 56.5625 8.375 56.5625H3C1.34315 56.5625 0 55.2194 0 53.5625V38.8C0 37.2708 1.23959 36.0312 2.7687 36.0312C3.93825 36.0312 4.98744 35.2985 5.34541 34.1851C7.57347 27.255 8.6875 19.5266 8.6875 11V3.78125C8.6875 2.1244 10.0306 0.78125 11.6875 0.78125H44.0938C45.7506 0.78125 47.0938 2.1244 47.0938 3.78125V33.5625C47.0938 34.926 48.199 36.0312 49.5625 36.0312C50.926 36.0312 52.0312 37.1365 52.0312 38.5V53.5625ZM29.9375 36.0312C31.5944 36.0312 32.9375 34.6881 32.9375 33.0312V15.0312C32.9375 13.3744 31.5944 12.0312 29.9375 12.0312H22.1562C21.8283 12.0312 21.5625 12.2971 21.5625 12.625C21.5625 18.1005 20.7605 24.6739 19.1566 32.3451C18.7616 34.2343 20.1874 36.0312 22.1174 36.0312H29.9375Z" fill="white"/>
<path d="M61.7447 22.0481C60.8865 23.1462 59.6835 24.0529 58.2975 23.9068L51.83 23.2252C50.0557 23.0382 48.7845 21.3262 49.4853 19.6854C49.7791 18.9974 50.1094 18.3939 50.4762 17.875C51.3512 16.6458 52.6012 15.5833 54.2262 14.6875C55.3929 14.0417 56.9971 13.5417 59.0387 13.1875C61.0804 12.8333 63.2887 12.6562 65.6637 12.6562C69.4762 12.6562 72.5387 12.875 74.8512 13.3125C77.1637 13.7292 79.0908 14.6146 80.6325 15.9688C81.7158 16.9062 82.57 18.2396 83.195 19.9688C83.82 21.6771 84.1325 23.3125 84.1325 24.875V39.5312C84.1325 41.0938 84.2262 42.3229 84.4137 43.2188C84.8023 44.8506 83.7759 46.5938 82.0985 46.5938H75.5456C74.4606 46.5938 73.4172 46.0269 72.9938 45.0279C72.9356 44.8907 72.8881 44.7668 72.8512 44.6562C72.5748 43.7873 71.4966 43.3966 70.7794 43.96C69.6633 44.8368 68.5518 45.5064 67.445 45.9688C65.195 46.8854 62.5804 47.3438 59.6012 47.3438C55.6429 47.3438 52.6325 46.4271 50.57 44.5938C48.5283 42.7604 47.5075 40.5 47.5075 37.8125C47.5075 35.2917 48.2471 33.2188 49.7262 31.5938C51.2054 29.9688 53.9346 28.7604 57.9137 27.9688C62.6846 27.0104 65.7783 26.3438 67.195 25.9688C68.0287 25.7358 68.8913 25.4632 69.7827 25.1508C70.9452 24.7436 71.8011 23.5978 71.4449 22.4188C71.2835 21.8845 71.0439 21.4637 70.7262 21.1562C70.0804 20.5312 68.945 20.2188 67.32 20.2188C65.2367 20.2188 63.6742 20.5521 62.6325 21.2188C62.3123 21.424 62.0164 21.7005 61.7447 22.0481ZM71.695 32.875C71.695 31.8851 70.7138 31.1929 69.7703 31.4924C68.6187 31.858 67.4373 32.1939 66.2262 32.5C63.6429 33.1875 62.0075 33.8646 61.32 34.5312C60.6117 35.2188 60.2575 36 60.2575 36.875C60.2575 37.875 60.6012 38.6979 61.2887 39.3438C61.9971 39.9688 63.0283 40.2812 64.3825 40.2812C65.7992 40.2812 67.1117 39.9375 68.32 39.25C69.5492 38.5625 70.4137 37.7292 70.9137 36.75C71.4346 35.75 71.695 34.4583 71.695 32.875Z" fill="white"/>
<path d="M109.109 28.8714C109.109 28.9089 109.137 28.9403 109.175 28.9442C111.665 29.2021 113.643 30.0332 115.109 31.4375C116.609 32.8542 117.359 34.75 117.359 37.125C117.359 40.2917 116.317 42.6667 114.234 44.25C112.15 45.8125 108.411 46.5938 103.015 46.5938H87.0775C85.4206 46.5938 84.0775 45.2506 84.0775 43.5938V16.4375C84.0775 14.7806 85.4206 13.4375 87.0775 13.4375H104.546C108.255 13.4375 111.077 14.1458 113.015 15.5625C114.973 16.9792 115.952 18.9583 115.952 21.5C115.952 23.2917 115.317 24.8542 114.046 26.1875C112.788 27.4875 111.161 28.3583 109.166 28.7999C109.133 28.8073 109.109 28.837 109.109 28.8714ZM96.7962 23.4375C96.7962 24.8872 97.9715 26.0625 99.4212 26.0625H100.015C102.14 26.0625 103.202 25.0938 103.202 23.1562C103.202 21.5938 102.077 20.8125 99.8275 20.8125H99.4212C97.9715 20.8125 96.7962 21.9878 96.7962 23.4375ZM96.7962 35.875C96.7962 37.4801 98.0974 38.7812 99.7025 38.7812H100.984C102.025 38.7812 102.869 38.5417 103.515 38.0625C104.161 37.5833 104.484 36.8854 104.484 35.9688C104.484 33.9688 103.317 32.9688 100.984 32.9688H99.7025C98.0974 32.9688 96.7962 34.2699 96.7962 35.875Z" fill="white"/>
<path d="M128.447 22.0481C127.589 23.1462 126.386 24.0529 125 23.9068L118.533 23.2252C116.758 23.0382 115.487 21.3262 116.188 19.6854C116.482 18.9974 116.812 18.3939 117.179 17.875C118.054 16.6458 119.304 15.5833 120.929 14.6875C122.095 14.0417 123.7 13.5417 125.741 13.1875C127.783 12.8333 129.991 12.6562 132.366 12.6562C136.179 12.6562 139.241 12.875 141.554 13.3125C143.866 13.7292 145.793 14.6146 147.335 15.9688C148.418 16.9062 149.272 18.2396 149.897 19.9688C150.522 21.6771 150.835 23.3125 150.835 24.875V39.5312C150.835 41.0938 150.929 42.3229 151.116 43.2188C151.505 44.8506 150.478 46.5938 148.801 46.5938H142.248C141.163 46.5938 140.12 46.0269 139.696 45.0279C139.638 44.8907 139.591 44.7668 139.554 44.6562C139.277 43.7873 138.199 43.3966 137.482 43.96C136.366 44.8368 135.254 45.5064 134.147 45.9688C131.897 46.8854 129.283 47.3438 126.304 47.3438C122.345 47.3438 119.335 46.4271 117.272 44.5938C115.231 42.7604 114.21 40.5 114.21 37.8125C114.21 35.2917 114.95 33.2188 116.429 31.5938C117.908 29.9688 120.637 28.7604 124.616 27.9688C129.387 27.0104 132.481 26.3438 133.897 25.9688C134.731 25.7358 135.594 25.4632 136.485 25.1508C137.648 24.7436 138.504 23.5978 138.147 22.4188C137.986 21.8845 137.746 21.4637 137.429 21.1562C136.783 20.5312 135.647 20.2188 134.022 20.2188C131.939 20.2188 130.377 20.5521 129.335 21.2188C129.015 21.424 128.719 21.7005 128.447 22.0481ZM138.397 32.875C138.397 31.8851 137.416 31.1929 136.473 31.4924C135.321 31.858 134.14 32.1939 132.929 32.5C130.345 33.1875 128.71 33.8646 128.022 34.5312C127.314 35.2188 126.96 36 126.96 36.875C126.96 37.875 127.304 38.6979 127.991 39.3438C128.7 39.9688 129.731 40.2812 131.085 40.2812C132.502 40.2812 133.814 39.9375 135.022 39.25C136.252 38.5625 137.116 37.7292 137.616 36.75C138.137 35.75 138.397 34.4583 138.397 32.875Z" fill="white"/>
<path d="M187.842 43.5938C187.842 45.2506 186.499 46.5938 184.842 46.5938H178.811C177.154 46.5938 175.811 45.2506 175.811 43.5938V39.1285C175.811 36.2612 172.174 35.0278 170.43 37.3038L164.212 45.4185C163.644 46.1593 162.764 46.5938 161.831 46.5938H154.217C152.561 46.5938 151.217 45.2506 151.217 43.5938V16.4375C151.217 14.7806 152.561 13.4375 154.217 13.4375H160.249C161.906 13.4375 163.249 14.7806 163.249 16.4375V21.0978C163.249 23.9676 166.891 25.1994 168.633 22.9186L174.973 14.6167C175.541 13.8735 176.422 13.4375 177.357 13.4375H184.842C186.499 13.4375 187.842 14.7806 187.842 16.4375V43.5938ZM176.895 0C178.479 0 179.811 1.32663 179.371 2.84757C178.885 4.5243 177.969 5.89803 176.624 6.96875C174.582 8.59375 172.155 9.40625 169.342 9.40625C166.051 9.40625 163.478 8.58333 161.624 6.9375C160.475 5.90478 159.634 4.62408 159.101 3.09543C158.54 1.48588 159.931 0 161.635 0C162.94 0 163.99 0.974014 164.896 1.91411C165.814 2.8672 167.213 3.34375 169.092 3.34375C170.676 3.34375 171.915 3.125 172.811 2.6875C173.149 2.51851 173.446 2.29004 173.702 2.0021C174.574 1.02114 175.583 0 176.895 0Z" fill="white"/>
<path d="M225.716 35.8657C226.484 34.6554 227.759 33.7418 229.184 33.9037L235.377 34.6079C237.195 34.8146 238.429 36.6057 237.64 38.2568C237.067 39.4565 236.369 40.5584 235.545 41.5625C234.024 43.3958 232.076 44.8229 229.701 45.8438C227.347 46.8646 224.347 47.375 220.701 47.375C217.18 47.375 214.243 47.0521 211.889 46.4062C209.555 45.7396 207.545 44.6771 205.857 43.2188C204.17 41.7396 202.847 40.0104 201.889 38.0312C200.93 36.0521 200.451 33.4271 200.451 30.1562C200.451 26.7396 201.035 23.8958 202.201 21.625C203.055 19.9583 204.222 18.4688 205.701 17.1562C207.18 15.8229 208.701 14.8333 210.264 14.1875C212.743 13.1667 215.92 12.6562 219.795 12.6562C225.212 12.6562 229.337 13.625 232.17 15.5625C234.121 16.8866 235.672 18.6291 236.825 20.79C237.698 22.4262 236.496 24.2854 234.658 24.5302L228.821 25.3074C227.324 25.5068 226.01 24.4645 225.042 23.3044C224.777 22.9857 224.475 22.7072 224.139 22.4688C223.16 21.7396 221.837 21.375 220.17 21.375C218.066 21.375 216.357 22.1354 215.045 23.6562C213.753 25.1562 213.107 27.4375 213.107 30.5C213.107 33.2292 213.753 35.3021 215.045 36.7188C216.337 38.1354 217.982 38.8438 219.982 38.8438C221.649 38.8438 223.045 38.4167 224.17 37.5625C224.764 37.1199 225.279 36.5543 225.716 35.8657Z" fill="white"/>
<path d="M235.428 30.0938C235.428 25.0312 237.136 20.8646 240.553 17.5938C243.969 14.3021 248.584 12.6562 254.396 12.6562C261.042 12.6562 266.063 14.5833 269.459 18.4375C272.188 21.5417 273.552 25.3646 273.552 29.9062C273.552 35.0104 271.855 39.1979 268.459 42.4688C265.084 45.7188 260.407 47.3438 254.428 47.3438C249.094 47.3438 244.782 45.9896 241.49 43.2812C237.448 39.9271 235.428 35.5312 235.428 30.0938ZM248.178 30.0625C248.178 33.0208 248.771 35.2083 249.959 36.625C251.167 38.0417 252.678 38.75 254.49 38.75C256.323 38.75 257.823 38.0521 258.99 36.6562C260.177 35.2604 260.771 33.0208 260.771 29.9375C260.771 27.0625 260.177 24.9271 258.99 23.5312C257.802 22.1146 256.334 21.4062 254.584 21.4062C252.73 21.4062 251.198 22.125 249.99 23.5625C248.782 24.9792 248.178 27.1458 248.178 30.0625Z" fill="white"/>
<path d="M306.972 25.9173C306.043 27.6028 306.168 30.9266 307.435 32.375C308.602 33.6875 309.185 35.1458 309.185 36.75C309.185 40.2083 307.529 42.8438 304.216 44.6562C300.904 46.4688 296.07 47.375 289.716 47.375C284.383 47.375 280.185 46.3958 277.122 44.4375C275.03 43.0757 273.336 41.2455 272.042 38.9467C271.101 37.2739 272.339 35.3301 274.247 35.1181L280.264 34.4495C281.646 34.296 282.923 35.169 283.874 36.1836C284.245 36.5789 284.682 36.9552 285.185 37.3125C286.497 38.2083 287.987 38.6562 289.654 38.6562C293.925 38.6562 296.06 37.5938 296.06 35.4688C296.06 34.7396 295.654 34.1562 294.841 33.7188C294.029 33.2604 292.966 33.0312 291.654 33.0312H289.122C287.466 33.0312 286.122 31.6881 286.122 30.0312V29.5C286.122 27.8431 287.466 26.5 289.122 26.5H291.779C292.883 26.5 293.893 26.2708 294.81 25.8125C295.727 25.3542 296.185 24.7708 296.185 24.0625C296.185 23.2708 295.643 22.625 294.56 22.125C293.497 21.625 292.008 21.375 290.091 21.375C288.216 21.375 286.633 21.7708 285.341 22.5625C284.945 22.7992 284.592 23.0506 284.284 23.3167C283.187 24.2636 281.83 25.2019 280.394 25.0067L274.644 24.2247C272.813 23.9757 271.614 22.1221 272.506 20.5044C273.701 18.3373 275.344 16.638 277.435 15.4062C280.477 13.5938 284.675 12.6875 290.029 12.6875C295.591 12.6875 299.945 13.5938 303.091 15.4062C306.258 17.2188 307.841 19.5104 307.841 22.2812C307.841 23.654 307.551 24.8661 306.972 25.9173Z" fill="white"/>
<path d="M345.505 53.0625C345.505 54.7194 344.162 56.0625 342.505 56.0625H339.693C338.036 56.0625 336.693 54.7194 336.693 53.0625V49.5938C336.693 47.9369 335.349 46.5938 333.693 46.5938H316.193C314.536 46.5938 313.193 47.9369 313.193 49.5938V53.0625C313.193 54.7194 311.849 56.0625 310.193 56.0625H307.349C305.692 56.0625 304.349 54.7194 304.349 53.0625V39.3418C304.349 38.2211 305.257 37.3125 306.378 37.3125C307.113 37.3125 307.796 36.9191 308.119 36.2593C310.085 32.2402 311.068 27.1329 311.068 20.9375V16.4375C311.068 14.7806 312.411 13.4375 314.068 13.4375H339.005C340.662 13.4375 342.005 14.7806 342.005 16.4375V35.5625C342.005 36.529 342.789 37.3125 343.755 37.3125C344.721 37.3125 345.505 38.096 345.505 39.0625V53.0625ZM326.255 37.3125C327.912 37.3125 329.255 35.9694 329.255 34.3125V25.7188C329.255 24.0619 327.912 22.7188 326.255 22.7188H323.536C323.329 22.7188 323.161 22.8866 323.161 23.0938C323.161 26.3598 322.658 29.694 321.652 33.0964C321.046 35.1425 322.501 37.3125 324.635 37.3125H326.255Z" fill="white"/>
<path d="M355.125 22.0481C354.267 23.1462 353.064 24.0529 351.677 23.9068L345.21 23.2252C343.436 23.0382 342.165 21.3262 342.865 19.6854C343.159 18.9974 343.489 18.3939 343.856 17.875C344.731 16.6458 345.981 15.5833 347.606 14.6875C348.773 14.0417 350.377 13.5417 352.419 13.1875C354.46 12.8333 356.669 12.6562 359.044 12.6562C362.856 12.6562 365.919 12.875 368.231 13.3125C370.544 13.7292 372.471 14.6146 374.013 15.9688C375.096 16.9062 375.95 18.2396 376.575 19.9688C377.2 21.6771 377.513 23.3125 377.513 24.875V39.5312C377.513 41.0938 377.606 42.3229 377.794 43.2188C378.182 44.8506 377.156 46.5938 375.479 46.5938H368.926C367.841 46.5938 366.797 46.0269 366.374 45.0279C366.316 44.8907 366.268 44.7668 366.231 44.6562C365.955 43.7873 364.877 43.3966 364.159 43.96C363.043 44.8368 361.932 45.5064 360.825 45.9688C358.575 46.8854 355.96 47.3438 352.981 47.3438C349.023 47.3438 346.013 46.4271 343.95 44.5938C341.908 42.7604 340.888 40.5 340.888 37.8125C340.888 35.2917 341.627 33.2188 343.106 31.5938C344.585 29.9688 347.315 28.7604 351.294 27.9688C356.065 27.0104 359.158 26.3438 360.575 25.9688C361.409 25.7358 362.271 25.4632 363.163 25.1508C364.325 24.7436 365.181 23.5978 364.825 22.4188C364.663 21.8845 364.424 21.4637 364.106 21.1562C363.46 20.5312 362.325 20.2188 360.7 20.2188C358.617 20.2188 357.054 20.5521 356.013 21.2188C355.692 21.424 355.396 21.7005 355.125 22.0481ZM365.075 32.875C365.075 31.8851 364.094 31.1929 363.15 31.4924C361.999 31.858 360.817 32.1939 359.606 32.5C357.023 33.1875 355.388 33.8646 354.7 34.5312C353.992 35.2188 353.638 36 353.638 36.875C353.638 37.875 353.981 38.6979 354.669 39.3438C355.377 39.9688 356.408 40.2812 357.763 40.2812C359.179 40.2812 360.492 39.9375 361.7 39.25C362.929 38.5625 363.794 37.7292 364.294 36.75C364.815 35.75 365.075 34.4583 365.075 32.875Z" fill="white"/>
<path d="M415.208 53.0625C415.208 54.7194 413.864 56.0625 412.208 56.0625H409.395C407.738 56.0625 406.395 54.7194 406.395 53.0625V49.5938C406.395 47.9369 405.052 46.5938 403.395 46.5938H385.895C384.238 46.5938 382.895 47.9369 382.895 49.5938V53.0625C382.895 54.7194 381.552 56.0625 379.895 56.0625H377.051C375.394 56.0625 374.051 54.7194 374.051 53.0625V39.3418C374.051 38.2211 374.96 37.3125 376.081 37.3125C376.815 37.3125 377.499 36.9191 377.822 36.2593C379.787 32.2402 380.77 27.1329 380.77 20.9375V16.4375C380.77 14.7806 382.113 13.4375 383.77 13.4375H408.708C410.364 13.4375 411.708 14.7806 411.708 16.4375V35.5625C411.708 36.529 412.491 37.3125 413.458 37.3125C414.424 37.3125 415.208 38.096 415.208 39.0625V53.0625ZM395.958 37.3125C397.614 37.3125 398.958 35.9694 398.958 34.3125V25.7188C398.958 24.0619 397.614 22.7188 395.958 22.7188H393.239C393.032 22.7188 392.864 22.8866 392.864 23.0938C392.864 26.3598 392.361 29.694 391.354 33.0964C390.749 35.1425 392.203 37.3125 394.337 37.3125H395.958Z" fill="white"/>
<path d="M449.215 43.5938C449.215 45.2506 447.872 46.5938 446.215 46.5938H440.184C438.527 46.5938 437.184 45.2506 437.184 43.5938V39.1285C437.184 36.2612 433.547 35.0278 431.803 37.3038L425.584 45.4185C425.017 46.1593 424.136 46.5938 423.203 46.5938H415.59C413.933 46.5938 412.59 45.2506 412.59 43.5938V16.4375C412.59 14.7806 413.933 13.4375 415.59 13.4375H421.621C423.278 13.4375 424.621 14.7806 424.621 16.4375V21.0978C424.621 23.9676 428.264 25.1994 430.005 22.9186L436.346 14.6167C436.913 13.8735 437.795 13.4375 438.73 13.4375H446.215C447.872 13.4375 449.215 14.7806 449.215 16.4375V43.5938Z" fill="white"/>
<path d="M495.66 43.5938C495.66 45.2506 494.317 46.5938 492.66 46.5938H487.91C486.253 46.5938 484.91 45.2506 484.91 43.5938V42.187C484.91 38.8521 480.284 38.0062 479.104 41.1253L477.768 44.6554C477.327 45.822 476.21 46.5938 474.963 46.5938H471.391C470.174 46.5938 469.077 45.858 468.615 44.7316L466.623 39.8718C465.376 36.8286 460.848 37.7207 460.848 41.0096V43.5938C460.848 45.2506 459.504 46.5938 457.848 46.5938H453.098C451.441 46.5938 450.098 45.2506 450.098 43.5938V16.4375C450.098 14.7806 451.441 13.4375 453.098 13.4375H463.285C464.496 13.4375 465.588 14.166 466.054 15.2843L470.333 25.5603C471.375 28.0625 474.938 28.0096 475.905 25.4775L479.767 15.367C480.211 14.2051 481.325 13.4375 482.569 13.4375H492.66C494.317 13.4375 495.66 14.7806 495.66 16.4375V43.5938Z" fill="white"/>
<path d="M96.3163 93.5938C96.3163 95.2506 94.9731 96.5938 93.3163 96.5938H86.5663C84.9094 96.5938 83.5663 95.2506 83.5663 93.5938V89.6618C83.5663 87.3325 80.973 85.8408 78.7337 86.482C76.9454 86.994 75.0875 87.25 73.16 87.25C65.1808 87.25 61.1913 83 61.1913 74.5V66.4375C61.1913 64.7806 62.5344 63.4375 64.1913 63.4375H70.91C72.5669 63.4375 73.91 64.7806 73.91 66.4375V72.5312C73.91 74.0312 74.2538 75.2083 74.9413 76.0625C75.6288 76.9167 76.5871 77.3438 77.8163 77.3438C79.8547 77.3438 81.5555 76.6301 82.9186 75.2029C83.3682 74.7322 83.5663 74.0855 83.5663 73.4346V66.4375C83.5663 64.7806 84.9094 63.4375 86.5663 63.4375H93.3163C94.9731 63.4375 96.3163 64.7806 96.3163 66.4375V93.5938Z" fill="white"/>
<path d="M124.105 69.7188C124.105 71.3756 122.762 72.7188 121.105 72.7188H117.886C116.229 72.7188 114.886 74.0619 114.886 75.7188V93.5938C114.886 95.2506 113.543 96.5938 111.886 96.5938H105.136C103.479 96.5938 102.136 95.2506 102.136 93.5938V75.7188C102.136 74.0619 100.793 72.7188 99.1363 72.7188H95.9175C94.2607 72.7188 92.9175 71.3756 92.9175 69.7188V66.4375C92.9175 64.7806 94.2607 63.4375 95.9175 63.4375H121.105C122.762 63.4375 124.105 64.7806 124.105 66.4375V69.7188Z" fill="white"/>
<path d="M119.394 80.0938C119.394 75.0312 121.102 70.8646 124.519 67.5938C127.935 64.3021 132.55 62.6562 138.363 62.6562C145.008 62.6562 150.029 64.5833 153.425 68.4375C156.154 71.5417 157.519 75.3646 157.519 79.9062C157.519 85.0104 155.821 89.1979 152.425 92.4688C149.05 95.7188 144.373 97.3438 138.394 97.3438C133.06 97.3438 128.748 95.9896 125.456 93.2812C121.415 89.9271 119.394 85.5312 119.394 80.0938ZM132.144 80.0625C132.144 83.0208 132.738 85.2083 133.925 86.625C135.133 88.0417 136.644 88.75 138.456 88.75C140.29 88.75 141.79 88.0521 142.956 86.6562C144.144 85.2604 144.738 83.0208 144.738 79.9375C144.738 77.0625 144.144 74.9271 142.956 73.5312C141.769 72.1146 140.3 71.4062 138.55 71.4062C136.696 71.4062 135.165 72.125 133.956 73.5625C132.748 74.9792 132.144 77.1458 132.144 80.0625Z" fill="white"/>
<path d="M153.526 77.9688C153.526 76.3119 154.869 74.9688 156.526 74.9688H169.026C170.683 74.9688 172.026 76.3119 172.026 77.9688V81.8125C172.026 83.4694 170.683 84.8125 169.026 84.8125H156.526C154.869 84.8125 153.526 83.4694 153.526 81.8125V77.9688Z" fill="white"/>
<path d="M197.565 69.7188C197.565 71.3756 196.222 72.7188 194.565 72.7188H191.346C189.689 72.7188 188.346 74.0619 188.346 75.7188V93.5938C188.346 95.2506 187.003 96.5938 185.346 96.5938H178.596C176.939 96.5938 175.596 95.2506 175.596 93.5938V75.7188C175.596 74.0619 174.253 72.7188 172.596 72.7188H169.378C167.721 72.7188 166.378 71.3756 166.378 69.7188V66.4375C166.378 64.7806 167.721 63.4375 169.378 63.4375H194.565C196.222 63.4375 197.565 64.7806 197.565 66.4375V69.7188Z" fill="white"/>
<path d="M192.854 80.0938C192.854 75.0312 194.562 70.8646 197.979 67.5938C201.395 64.3021 206.01 62.6562 211.823 62.6562C218.468 62.6562 223.489 64.5833 226.885 68.4375C229.614 71.5417 230.979 75.3646 230.979 79.9062C230.979 85.0104 229.281 89.1979 225.885 92.4688C222.51 95.7188 217.833 97.3438 211.854 97.3438C206.52 97.3438 202.208 95.9896 198.916 93.2812C194.875 89.9271 192.854 85.5312 192.854 80.0938ZM205.604 80.0625C205.604 83.0208 206.198 85.2083 207.385 86.625C208.593 88.0417 210.104 88.75 211.916 88.75C213.75 88.75 215.25 88.0521 216.416 86.6562C217.604 85.2604 218.198 83.0208 218.198 79.9375C218.198 77.0625 217.604 74.9271 216.416 73.5312C215.229 72.1146 213.76 71.4062 212.01 71.4062C210.156 71.4062 208.625 72.125 207.416 73.5625C206.208 74.9792 205.604 77.1458 205.604 80.0625Z" fill="white"/>
<path d="M277.302 92.0408C278.511 94.0402 277.072 96.5938 274.735 96.5938H267.514C266.405 96.5938 265.387 95.9823 264.866 95.0036L260.838 87.4375C260.067 85.9792 259.306 85.0625 258.556 84.6875C257.18 83.9796 255.838 85.3797 255.838 86.9275V93.5938C255.838 95.2506 254.494 96.5938 252.838 96.5938H246.119C244.462 96.5938 243.119 95.2506 243.119 93.5938V66.4375C243.119 64.7806 244.462 63.4375 246.119 63.4375H252.838C254.494 63.4375 255.838 64.7806 255.838 66.4375V72.8104C255.838 74.2003 257.246 75.4302 258.15 74.375C258.65 73.7917 259.369 72.5104 260.306 70.5312C261.265 68.5521 262.119 67.1042 262.869 66.1875C263.619 65.2708 264.577 64.5833 265.744 64.125C266.91 63.6667 268.369 63.375 270.119 63.25C271.32 63.1642 272.924 63.1078 274.931 63.0809C276.588 63.0587 277.931 64.4056 277.931 66.0625V71.5312C277.931 71.8419 277.679 72.0938 277.369 72.0938C275.66 72.0938 274.358 72.1667 273.463 72.3125C272.567 72.4375 271.848 72.7188 271.306 73.1562C270.765 73.5938 270.14 74.4896 269.431 75.8438C268.723 77.1979 268.129 78.1458 267.65 78.6875C267.383 78.9909 267.522 80.0475 267.911 80.1561C268.605 80.35 269.195 80.6 269.681 80.9062C270.64 81.4896 272.088 83.3958 274.025 86.625L277.302 92.0408Z" fill="#0038FF"/>
<path d="M279.626 109.219C277.969 109.219 276.626 107.876 276.626 106.219V66.4062C276.626 64.7494 277.969 63.4062 279.626 63.4062H287.26C287.963 63.4062 288.533 63.9758 288.533 64.6785C288.533 65.8819 290.098 66.4479 290.988 65.6379C291.711 64.9797 292.403 64.4754 293.064 64.125C294.918 63.1458 296.97 62.6562 299.22 62.6562C303.658 62.6562 307.085 64.3542 309.501 67.75C311.939 71.1458 313.158 75.3438 313.158 80.3438C313.158 85.8646 311.835 90.0833 309.189 93C306.543 95.8958 303.199 97.3438 299.158 97.3438C297.199 97.3438 295.408 97.0104 293.783 96.3438C292.011 95.6077 289.47 96.7294 289.47 98.6475V106.219C289.47 107.876 288.127 109.219 286.47 109.219H279.626ZM289.376 80.0938C289.376 82.7188 289.928 84.6667 291.033 85.9375C292.137 87.2083 293.533 87.8438 295.22 87.8438C296.699 87.8438 297.939 87.2396 298.939 86.0312C299.939 84.8021 300.439 82.7292 300.439 79.8125C300.439 77.125 299.918 75.1562 298.876 73.9062C297.835 72.6354 296.564 72 295.064 72C293.439 72 292.085 72.6354 291.001 73.9062C289.918 75.1771 289.376 77.2396 289.376 80.0938Z" fill="#0038FF"/>
<path d="M309.632 67.5679C308.801 65.5908 310.253 63.4062 312.397 63.4062H319.11C320.425 63.4062 321.587 64.2625 321.976 65.5186L325.19 75.8969C326.072 78.744 330.117 78.702 330.94 75.8371L333.885 65.5783C334.254 64.2923 335.431 63.4062 336.769 63.4062H342.728C344.818 63.4062 346.267 65.49 345.54 67.4496L333.884 98.875C332.384 102.917 330.853 105.646 329.29 107.062C327.082 109.062 323.717 110.062 319.196 110.062C317.757 110.062 315.701 109.908 313.029 109.6C311.658 109.442 310.588 108.349 310.433 106.978L310.214 105.035C309.971 102.875 312.068 101.121 314.237 101.262C314.753 101.296 315.281 101.312 315.821 101.312C317.321 101.312 318.53 100.969 319.446 100.281C320.178 99.7447 320.821 98.8781 321.375 97.6816C321.693 96.9955 321.659 96.2064 321.366 95.5093L309.632 67.5679Z" fill="#0038FF"/>
<path d="M370.985 69.7188C370.985 71.3756 369.642 72.7188 367.985 72.7188H364.766C363.109 72.7188 361.766 74.0619 361.766 75.7188V93.5938C361.766 95.2506 360.423 96.5938 358.766 96.5938H352.016C350.359 96.5938 349.016 95.2506 349.016 93.5938V75.7188C349.016 74.0619 347.673 72.7188 346.016 72.7188H342.798C341.141 72.7188 339.798 71.3756 339.798 69.7188V66.4375C339.798 64.7806 341.141 63.4375 342.798 63.4375H367.985C369.642 63.4375 370.985 64.7806 370.985 66.4375V69.7188Z" fill="#0038FF"/>
<path d="M366.274 80.0938C366.274 75.0312 367.982 70.8646 371.399 67.5938C374.815 64.3021 379.43 62.6562 385.242 62.6562C391.888 62.6562 396.909 64.5833 400.305 68.4375C403.034 71.5417 404.399 75.3646 404.399 79.9062C404.399 85.0104 402.701 89.1979 399.305 92.4688C395.93 95.7188 391.253 97.3438 385.274 97.3438C379.94 97.3438 375.628 95.9896 372.336 93.2812C368.295 89.9271 366.274 85.5312 366.274 80.0938ZM379.024 80.0625C379.024 83.0208 379.617 85.2083 380.805 86.625C382.013 88.0417 383.524 88.75 385.336 88.75C387.17 88.75 388.67 88.0521 389.836 86.6562C391.024 85.2604 391.617 83.0208 391.617 79.9375C391.617 77.0625 391.024 74.9271 389.836 73.5312C388.649 72.1146 387.18 71.4062 385.43 71.4062C383.576 71.4062 382.045 72.125 380.836 73.5625C379.628 74.9792 379.024 77.1458 379.024 80.0625Z" fill="#0038FF"/>
<path d="M439.688 81.7188C439.688 82.5127 439.044 83.1562 438.25 83.1562H417.543C415.754 83.1562 414.259 84.7704 415.006 86.3964C415.241 86.9083 415.52 87.3491 415.844 87.7188C417.073 89.1562 418.677 89.875 420.656 89.875C421.906 89.875 423.094 89.5625 424.219 88.9375C424.583 88.7279 424.961 88.4336 425.355 88.0546C426.085 87.3509 427.046 86.8999 428.056 86.9931L434.313 87.5704C436.49 87.7713 437.717 90.1716 436.259 91.7999C434.977 93.2309 433.568 94.3601 432.031 95.1875C429.323 96.625 425.438 97.3438 420.375 97.3438C415.979 97.3438 412.521 96.7292 410 95.5C407.479 94.25 405.385 92.2812 403.719 89.5938C402.073 86.8854 401.25 83.7083 401.25 80.0625C401.25 74.875 402.906 70.6771 406.219 67.4688C409.552 64.2604 414.146 62.6562 420 62.6562C424.75 62.6562 428.5 63.375 431.25 64.8125C434 66.25 436.094 68.3333 437.531 71.0625C438.969 73.7917 439.688 77.3438 439.688 81.7188ZM423.429 77.0625C425.206 77.0625 426.68 75.4853 426.036 73.8293C425.706 72.9812 425.277 72.2985 424.75 71.7812C423.688 70.7188 422.281 70.1875 420.531 70.1875C418.51 70.1875 416.896 70.9896 415.688 72.5938C415.416 72.9453 415.18 73.3575 414.979 73.8301C414.28 75.4685 415.77 77.0625 417.551 77.0625H423.429Z" fill="#0038FF"/>
</svg>
