<svg width="139" height="103" viewBox="0 0 139 103" fill="none" xmlns="http://www.w3.org/2000/svg">
<path d="M0 101.914L3.24819 77.3536C10.3633 77.9833 16.0089 76.7238 20.1852 73.575C24.3614 70.5836 27.1456 66.2541 28.5376 60.5862C30.0844 55.0758 30.4711 48.7782 29.6977 41.6934H0V-18.9997H57.3073V44.055C57.3073 64.6797 52.5124 80.2662 42.9225 90.8147C33.3326 101.363 19.0251 105.063 0 101.914Z" fill="white" fill-opacity="0.05"/>
<path d="M81.6927 101.914L84.9409 77.3533C92.056 77.983 97.7016 76.7235 101.878 73.5747C106.054 70.5833 108.838 66.2537 110.23 60.5859C111.777 55.0755 112.164 48.7779 111.39 41.6931H81.6927V-19H139V44.0547C139 64.6793 134.205 80.2659 124.615 90.8144C115.025 101.363 100.718 105.063 81.6927 101.914Z" fill="white" fill-opacity="0.05"/>
</svg>
