<svg width="784" height="59" viewBox="0 0 784 59" fill="none" xmlns="http://www.w3.org/2000/svg">
<path d="M42.5625 42.8125C42.5625 44.4694 41.2194 45.8125 39.5625 45.8125H31.4062C29.7494 45.8125 28.4062 44.4694 28.4062 42.8125V33.8679C28.4062 31.5832 25.9369 30.1243 23.7916 30.9102C21.1261 31.8867 18.5497 32.375 16.0625 32.375C11.3958 32.375 7.55208 31 4.53125 28.25C1.51042 25.4792 0 21.6875 0 16.875V3C0 1.34315 1.34315 0 3 0H11.1562C12.8131 0 14.1562 1.34315 14.1562 3V14.0625C14.1562 16.2917 14.6875 18.0104 15.75 19.2188C16.8125 20.4271 18.3438 21.0312 20.3438 21.0312C23.599 21.0312 26.0676 20.1804 27.7496 18.4787C28.2081 18.0149 28.4062 17.3659 28.4062 16.7137V3C28.4062 1.34315 29.7494 0 31.4062 0H39.5625C41.2194 0 42.5625 1.34315 42.5625 3V42.8125Z" fill="white"/>
<path d="M71.4137 18.9375C71.4137 20.5944 70.0706 21.9375 68.4137 21.9375H65.195C63.5381 21.9375 62.195 23.2806 62.195 24.9375V42.8125C62.195 44.4694 60.8519 45.8125 59.195 45.8125H52.445C50.7881 45.8125 49.445 44.4694 49.445 42.8125V24.9375C49.445 23.2806 48.1019 21.9375 46.445 21.9375H43.2262C41.5694 21.9375 40.2262 20.5944 40.2262 18.9375V15.6562C40.2262 13.9994 41.5694 12.6562 43.2262 12.6562H68.4137C70.0706 12.6562 71.4137 13.9994 71.4137 15.6562V18.9375Z" fill="white"/>
<path d="M66.7025 29.3125C66.7025 24.25 68.4108 20.0833 71.8275 16.8125C75.2442 13.5208 79.8587 11.875 85.6712 11.875C92.3171 11.875 97.3379 13.8021 100.734 17.6562C103.463 20.7604 104.827 24.5833 104.827 29.125C104.827 34.2292 103.13 38.4167 99.7337 41.6875C96.3587 44.9375 91.6817 46.5625 85.7025 46.5625C80.3692 46.5625 76.0567 45.2083 72.765 42.5C68.7233 39.1458 66.7025 34.75 66.7025 29.3125ZM79.4525 29.2812C79.4525 32.2396 80.0462 34.4271 81.2337 35.8438C82.4421 37.2604 83.9525 37.9688 85.765 37.9688C87.5983 37.9688 89.0983 37.2708 90.265 35.875C91.4525 34.4792 92.0462 32.2396 92.0462 29.1562C92.0462 26.2812 91.4525 24.1458 90.265 22.75C89.0775 21.3333 87.6087 20.625 85.8587 20.625C84.0046 20.625 82.4733 21.3438 81.265 22.7812C80.0567 24.1979 79.4525 26.3646 79.4525 29.2812Z" fill="white"/>
<path d="M144.28 18.9375C144.28 20.5944 142.937 21.9375 141.28 21.9375H133.155C131.498 21.9375 130.155 23.2806 130.155 24.9375V42.8125C130.155 44.4694 128.812 45.8125 127.155 45.8125H120.405C118.748 45.8125 117.405 44.4694 117.405 42.8125V15.6562C117.405 13.9994 118.748 12.6562 120.405 12.6562H141.28C142.937 12.6562 144.28 13.9994 144.28 15.6562V18.9375Z" fill="white"/>
<path d="M140.225 29.3125C140.225 24.25 141.933 20.0833 145.35 16.8125C148.767 13.5208 153.381 11.875 159.194 11.875C165.84 11.875 170.86 13.8021 174.256 17.6562C176.985 20.7604 178.35 24.5833 178.35 29.125C178.35 34.2292 176.652 38.4167 173.256 41.6875C169.881 44.9375 165.204 46.5625 159.225 46.5625C153.892 46.5625 149.579 45.2083 146.288 42.5C142.246 39.1458 140.225 34.75 140.225 29.3125ZM152.975 29.2812C152.975 32.2396 153.569 34.4271 154.756 35.8438C155.965 37.2604 157.475 37.9688 159.288 37.9688C161.121 37.9688 162.621 37.2708 163.788 35.875C164.975 34.4792 165.569 32.2396 165.569 29.1562C165.569 26.2812 164.975 24.1458 163.788 22.75C162.6 21.3333 161.131 20.625 159.381 20.625C157.527 20.625 155.996 21.3438 154.788 22.7812C153.579 24.1979 152.975 26.3646 152.975 29.2812Z" fill="white"/>
<path d="M201.826 28.0901C201.826 28.1277 201.855 28.1591 201.892 28.1629C204.382 28.4209 206.36 29.252 207.826 30.6562C209.326 32.0729 210.076 33.9688 210.076 36.3438C210.076 39.5104 209.035 41.8854 206.951 43.4688C204.868 45.0312 201.128 45.8125 195.732 45.8125H179.795C178.138 45.8125 176.795 44.4694 176.795 42.8125V15.6562C176.795 13.9994 178.138 12.6562 179.795 12.6562H197.264C200.972 12.6562 203.795 13.3646 205.732 14.7812C207.691 16.1979 208.67 18.1771 208.67 20.7188C208.67 22.5104 208.035 24.0729 206.764 25.4062C205.505 26.7062 203.878 27.577 201.884 28.0186C201.85 28.026 201.826 28.0558 201.826 28.0901ZM189.514 22.6562C189.514 24.106 190.689 25.2812 192.139 25.2812H192.732C194.857 25.2812 195.92 24.3125 195.92 22.375C195.92 20.8125 194.795 20.0312 192.545 20.0312H192.139C190.689 20.0312 189.514 21.2065 189.514 22.6562ZM189.514 35.0938C189.514 36.6988 190.815 38 192.42 38H193.701C194.743 38 195.587 37.7604 196.232 37.2812C196.878 36.8021 197.201 36.1042 197.201 35.1875C197.201 33.1875 196.035 32.1875 193.701 32.1875H192.42C190.815 32.1875 189.514 33.4887 189.514 35.0938Z" fill="white"/>
<path d="M206.928 29.3125C206.928 24.25 208.636 20.0833 212.053 16.8125C215.469 13.5208 220.084 11.875 225.896 11.875C232.542 11.875 237.563 13.8021 240.959 17.6562C243.688 20.7604 245.053 24.5833 245.053 29.125C245.053 34.2292 243.355 38.4167 239.959 41.6875C236.584 44.9375 231.907 46.5625 225.928 46.5625C220.594 46.5625 216.282 45.2083 212.99 42.5C208.948 39.1458 206.928 34.75 206.928 29.3125ZM219.678 29.2812C219.678 32.2396 220.271 34.4271 221.459 35.8438C222.667 37.2604 224.178 37.9688 225.99 37.9688C227.823 37.9688 229.323 37.2708 230.49 35.875C231.678 34.4792 232.271 32.2396 232.271 29.1562C232.271 26.2812 231.678 24.1458 230.49 22.75C229.303 21.3333 227.834 20.625 226.084 20.625C224.23 20.625 222.698 21.3438 221.49 22.7812C220.282 24.1979 219.678 26.3646 219.678 29.2812Z" fill="white"/>
<path d="M246.56 58.4375C244.903 58.4375 243.56 57.0944 243.56 55.4375V15.625C243.56 13.9681 244.903 12.625 246.56 12.625H254.194C254.897 12.625 255.466 13.1946 255.466 13.8972C255.466 15.1006 257.032 15.6667 257.922 14.8567C258.645 14.1984 259.337 13.6941 259.997 13.3438C261.852 12.3646 263.904 11.875 266.154 11.875C270.591 11.875 274.018 13.5729 276.435 16.9688C278.872 20.3646 280.091 24.5625 280.091 29.5625C280.091 35.0833 278.768 39.3021 276.122 42.2188C273.477 45.1146 270.133 46.5625 266.091 46.5625C264.133 46.5625 262.341 46.2292 260.716 45.5625C258.945 44.8264 256.404 45.9482 256.404 47.8663V55.4375C256.404 57.0944 255.061 58.4375 253.404 58.4375H246.56ZM256.31 29.3125C256.31 31.9375 256.862 33.8854 257.966 35.1562C259.07 36.4271 260.466 37.0625 262.154 37.0625C263.633 37.0625 264.872 36.4583 265.872 35.25C266.872 34.0208 267.372 31.9479 267.372 29.0312C267.372 26.3438 266.852 24.375 265.81 23.125C264.768 21.8542 263.497 21.2188 261.997 21.2188C260.372 21.2188 259.018 21.8542 257.935 23.125C256.852 24.3958 256.31 26.4583 256.31 29.3125Z" fill="white"/>
<path d="M310.755 42.8125C310.755 44.4694 309.412 45.8125 307.755 45.8125H301.036C299.379 45.8125 298.036 44.4694 298.036 42.8125V33.4062C298.036 33.1474 297.826 32.9375 297.568 32.9375C296.672 32.9375 295.963 33.1875 295.443 33.6875C294.943 34.1667 294.432 34.9062 293.911 35.9062L289.655 44.1844C289.141 45.1841 288.111 45.8125 286.987 45.8125H279.642C277.396 45.8125 275.947 43.4362 276.974 41.4397L279.661 36.2188C279.749 36.0478 279.838 35.8815 279.928 35.7198C280.479 34.7374 279.949 29.0749 279.255 28.1875C277.859 26.3542 277.161 24.3542 277.161 22.1875C277.161 20.0417 277.693 18.1458 278.755 16.5C279.838 14.8333 281.401 13.7812 283.443 13.3438C285.505 12.8854 288.099 12.6562 291.224 12.6562H307.755C309.412 12.6562 310.755 13.9994 310.755 15.6562V42.8125ZM295.443 25.4062C296.875 25.4062 298.036 24.245 298.036 22.8125C298.036 21.38 296.875 20.2188 295.443 20.2188H294.068C292.193 20.2188 291.026 20.4479 290.568 20.9062C290.109 21.3438 289.88 21.9688 289.88 22.7812C289.88 24.5312 291.422 25.4062 294.505 25.4062H295.443Z" fill="white"/>
<path d="M338.731 18.9375C338.731 20.5944 337.388 21.9375 335.731 21.9375H332.513C330.856 21.9375 329.513 23.2806 329.513 24.9375V42.8125C329.513 44.4694 328.169 45.8125 326.513 45.8125H319.763C318.106 45.8125 316.763 44.4694 316.763 42.8125V24.9375C316.763 23.2806 315.419 21.9375 313.763 21.9375H310.544C308.887 21.9375 307.544 20.5944 307.544 18.9375V15.6562C307.544 13.9994 308.887 12.6562 310.544 12.6562H335.731C337.388 12.6562 338.731 13.9994 338.731 15.6562V18.9375Z" fill="white"/>
<path d="M386.777 42.8125C386.777 44.4694 385.434 45.8125 383.777 45.8125H377.027C375.371 45.8125 374.027 44.4694 374.027 42.8125V36.2812C374.027 34.6244 372.684 33.2812 371.027 33.2812H365.465C363.808 33.2812 362.465 34.6244 362.465 36.2812V42.8125C362.465 44.4694 361.122 45.8125 359.465 45.8125H352.715C351.058 45.8125 349.715 44.4694 349.715 42.8125V15.6562C349.715 13.9994 351.058 12.6562 352.715 12.6562H359.465C361.122 12.6562 362.465 13.9994 362.465 15.6562V21C362.465 22.6569 363.808 24 365.465 24H371.027C372.684 24 374.027 22.6569 374.027 21V15.6562C374.027 13.9994 375.371 12.6562 377.027 12.6562H383.777C385.434 12.6562 386.777 13.9994 386.777 15.6562V42.8125Z" fill="white"/>
<path d="M399.897 21.2668C399.039 22.365 397.836 23.2717 396.45 23.1256L389.983 22.4439C388.208 22.2569 386.937 20.5449 387.638 18.9042C387.932 18.2162 388.262 17.6127 388.629 17.0938C389.504 15.8646 390.754 14.8021 392.379 13.9062C393.545 13.2604 395.15 12.7604 397.191 12.4062C399.233 12.0521 401.441 11.875 403.816 11.875C407.629 11.875 410.691 12.0938 413.004 12.5312C415.316 12.9479 417.243 13.8333 418.785 15.1875C419.868 16.125 420.723 17.4583 421.348 19.1875C421.973 20.8958 422.285 22.5312 422.285 24.0938V38.75C422.285 40.3125 422.379 41.5417 422.566 42.4375C422.955 44.0693 421.928 45.8125 420.251 45.8125H413.698C412.613 45.8125 411.57 45.2457 411.146 44.2466C411.088 44.1094 411.041 43.9856 411.004 43.875C410.727 43.006 409.649 42.6154 408.932 43.1787C407.816 44.0556 406.704 44.7252 405.598 45.1875C403.348 46.1042 400.733 46.5625 397.754 46.5625C393.795 46.5625 390.785 45.6458 388.723 43.8125C386.681 41.9792 385.66 39.7188 385.66 37.0312C385.66 34.5104 386.4 32.4375 387.879 30.8125C389.358 29.1875 392.087 27.9792 396.066 27.1875C400.837 26.2292 403.931 25.5625 405.348 25.1875C406.181 24.9545 407.044 24.6819 407.935 24.3696C409.098 23.9623 409.954 22.8166 409.597 21.6375C409.436 21.1033 409.196 20.6824 408.879 20.375C408.233 19.75 407.098 19.4375 405.473 19.4375C403.389 19.4375 401.827 19.7708 400.785 20.4375C400.465 20.6428 400.169 20.9192 399.897 21.2668ZM409.848 32.0938C409.848 31.1038 408.866 30.4116 407.923 30.7112C406.771 31.0768 405.59 31.4126 404.379 31.7188C401.795 32.4062 400.16 33.0833 399.473 33.75C398.764 34.4375 398.41 35.2188 398.41 36.0938C398.41 37.0938 398.754 37.9167 399.441 38.5625C400.15 39.1875 401.181 39.5 402.535 39.5C403.952 39.5 405.264 39.1562 406.473 38.4688C407.702 37.7812 408.566 36.9479 409.066 35.9688C409.587 34.9688 409.848 33.6771 409.848 32.0938Z" fill="white"/>
<path d="M474.449 42.8125C474.449 44.4694 473.106 45.8125 471.449 45.8125H425.043C423.386 45.8125 422.043 44.4694 422.043 42.8125V15.6562C422.043 13.9994 423.386 12.6562 425.043 12.6562H431.761C433.418 12.6562 434.761 13.9994 434.761 15.6562V33.5312C434.761 35.1881 436.104 36.5312 437.761 36.5312H438.886C440.543 36.5312 441.886 35.1881 441.886 33.5312V15.6562C441.886 13.9994 443.229 12.6562 444.886 12.6562H451.605C453.262 12.6562 454.605 13.9994 454.605 15.6562V33.5312C454.605 35.1881 455.948 36.5312 457.605 36.5312H458.699C460.356 36.5312 461.699 35.1881 461.699 33.5312V15.6562C461.699 13.9994 463.042 12.6562 464.699 12.6562H471.449C473.106 12.6562 474.449 13.9994 474.449 15.6562V42.8125Z" fill="white"/>
<path d="M512.362 42.8125C512.362 44.4694 511.019 45.8125 509.362 45.8125H503.331C501.674 45.8125 500.331 44.4694 500.331 42.8125V38.3473C500.331 35.4799 496.694 34.2466 494.95 36.5225L488.732 44.6372C488.164 45.3781 487.284 45.8125 486.351 45.8125H478.737C477.081 45.8125 475.737 44.4694 475.737 42.8125V15.6562C475.737 13.9994 477.081 12.6562 478.737 12.6562H484.769C486.426 12.6562 487.769 13.9994 487.769 15.6562V20.3165C487.769 23.1863 491.411 24.4181 493.153 22.1374L499.493 13.8354C500.061 13.0923 500.942 12.6562 501.877 12.6562H509.362C511.019 12.6562 512.362 13.9994 512.362 15.6562V42.8125Z" fill="white"/>
<path d="M560.685 41.2596C561.895 43.2589 560.455 45.8125 558.119 45.8125H550.898C549.789 45.8125 548.771 45.201 548.25 44.2224L544.221 36.6562C543.45 35.1979 542.69 34.2812 541.94 33.9062C540.564 33.1984 539.221 34.5984 539.221 36.1462V42.8125C539.221 44.4694 537.878 45.8125 536.221 45.8125H529.503C527.846 45.8125 526.503 44.4694 526.503 42.8125V15.6562C526.503 13.9994 527.846 12.6562 529.503 12.6562H536.221C537.878 12.6562 539.221 13.9994 539.221 15.6562V22.0292C539.221 23.419 540.629 24.649 541.534 23.5938C542.034 23.0104 542.753 21.7292 543.69 19.75C544.648 17.7708 545.503 16.3229 546.253 15.4062C547.003 14.4896 547.961 13.8021 549.128 13.3438C550.294 12.8854 551.753 12.5938 553.503 12.4688C554.704 12.3829 556.308 12.3266 558.315 12.2997C559.972 12.2775 561.315 13.6244 561.315 15.2812V20.75C561.315 21.0607 561.063 21.3125 560.753 21.3125C559.044 21.3125 557.742 21.3854 556.846 21.5312C555.95 21.6562 555.232 21.9375 554.69 22.375C554.148 22.8125 553.523 23.7083 552.815 25.0625C552.107 26.4167 551.513 27.3646 551.034 27.9062C550.767 28.2097 550.905 29.2662 551.295 29.3749C551.989 29.5687 552.579 29.8188 553.065 30.125C554.023 30.7083 555.471 32.6146 557.409 35.8438L560.685 41.2596Z" fill="white"/>
<path d="M598.073 42.8125C598.073 44.4694 596.729 45.8125 595.073 45.8125H588.354C586.697 45.8125 585.354 44.4694 585.354 42.8125V24.9375C585.354 23.2806 584.011 21.9375 582.354 21.9375H578.698C577.041 21.9375 575.698 23.2806 575.698 24.9375V35.8438C575.698 39.5521 574.937 42.3021 573.416 44.0938C571.916 45.8854 569.604 46.7812 566.479 46.7812C563.889 46.7812 561.493 46.6085 559.293 46.2631C557.912 46.0462 556.948 44.8215 556.948 43.4233V39.9228C556.948 38.1739 558.636 37.0938 560.385 37.0938C562.093 37.0938 562.948 35.8229 562.948 33.2812V15.6562C562.948 13.9994 564.291 12.6562 565.948 12.6562H595.073C596.729 12.6562 598.073 13.9994 598.073 15.6562V42.8125Z" fill="white"/>
<path d="M635.143 42.8125C635.143 44.4694 633.799 45.8125 632.143 45.8125H626.111C624.454 45.8125 623.111 44.4694 623.111 42.8125V38.3473C623.111 35.4799 619.474 34.2466 617.73 36.5225L611.512 44.6372C610.944 45.3781 610.064 45.8125 609.131 45.8125H601.518C599.861 45.8125 598.518 44.4694 598.518 42.8125V15.6562C598.518 13.9994 599.861 12.6562 601.518 12.6562H607.549C609.206 12.6562 610.549 13.9994 610.549 15.6562V20.3165C610.549 23.1863 614.191 24.4181 615.933 22.1374L622.273 13.8354C622.841 13.0923 623.722 12.6562 624.657 12.6562H632.143C633.799 12.6562 635.143 13.9994 635.143 15.6562V42.8125Z" fill="white"/>
<path d="M672.431 30.9375C672.431 31.7314 671.788 32.375 670.994 32.375H650.287C648.497 32.375 647.003 33.9891 647.75 35.6151C647.985 36.1271 648.264 36.5679 648.588 36.9375C649.817 38.375 651.421 39.0938 653.4 39.0938C654.65 39.0938 655.838 38.7812 656.963 38.1562C657.327 37.9467 657.705 37.6524 658.098 37.2734C658.829 36.5697 659.79 36.1187 660.8 36.2119L667.057 36.7892C669.234 36.99 670.461 39.3903 669.003 41.0186C667.721 42.4496 666.312 43.5788 664.775 44.4062C662.067 45.8438 658.181 46.5625 653.119 46.5625C648.723 46.5625 645.265 45.9479 642.744 44.7188C640.223 43.4688 638.129 41.5 636.463 38.8125C634.817 36.1042 633.994 32.9271 633.994 29.2812C633.994 24.0938 635.65 19.8958 638.963 16.6875C642.296 13.4792 646.89 11.875 652.744 11.875C657.494 11.875 661.244 12.5938 663.994 14.0312C666.744 15.4688 668.838 17.5521 670.275 20.2812C671.713 23.0104 672.431 26.5625 672.431 30.9375ZM656.173 26.2812C657.95 26.2812 659.424 24.7041 658.78 23.0481C658.45 22.2 658.021 21.5173 657.494 21C656.431 19.9375 655.025 19.4062 653.275 19.4062C651.254 19.4062 649.64 20.2083 648.431 21.8125C648.16 22.1641 647.924 22.5762 647.723 23.0488C647.024 24.6873 648.514 26.2812 650.295 26.2812H656.173Z" fill="white"/>
<path d="M708.095 42.8125C708.095 44.4694 706.752 45.8125 705.095 45.8125H698.345C696.688 45.8125 695.345 44.4694 695.345 42.8125V36.2812C695.345 34.6244 694.002 33.2812 692.345 33.2812H686.783C685.126 33.2812 683.783 34.6244 683.783 36.2812V42.8125C683.783 44.4694 682.439 45.8125 680.783 45.8125H674.033C672.376 45.8125 671.033 44.4694 671.033 42.8125V15.6562C671.033 13.9994 672.376 12.6562 674.033 12.6562H680.783C682.439 12.6562 683.783 13.9994 683.783 15.6562V21C683.783 22.6569 685.126 24 686.783 24H692.345C694.002 24 695.345 22.6569 695.345 21V15.6562C695.345 13.9994 696.688 12.6562 698.345 12.6562H705.095C706.752 12.6562 708.095 13.9994 708.095 15.6562V42.8125Z" fill="white"/>
<path d="M736.509 18.9375C736.509 20.5944 735.166 21.9375 733.509 21.9375H730.29C728.633 21.9375 727.29 23.2806 727.29 24.9375V42.8125C727.29 44.4694 725.947 45.8125 724.29 45.8125H717.54C715.883 45.8125 714.54 44.4694 714.54 42.8125V24.9375C714.54 23.2806 713.197 21.9375 711.54 21.9375H708.321C706.664 21.9375 705.321 20.5944 705.321 18.9375V15.6562C705.321 13.9994 706.664 12.6562 708.321 12.6562H733.509C735.166 12.6562 736.509 13.9994 736.509 15.6562V18.9375Z" fill="white"/>
<path d="M746.547 21.4375C746.547 23.0944 747.891 24.4375 749.547 24.4375H752.36C762.172 24.4375 767.079 28.0208 767.079 35.1875C767.079 42.2708 762.297 45.8125 752.735 45.8125H736.797C735.141 45.8125 733.797 44.4694 733.797 42.8125V15.6562C733.797 13.9994 735.141 12.6562 736.797 12.6562H743.547C745.204 12.6562 746.547 13.9994 746.547 15.6562V21.4375ZM746.547 35.0938C746.547 36.6988 747.849 38 749.454 38H750.704C751.745 38 752.589 37.7604 753.235 37.2812C753.902 36.8021 754.235 36.1042 754.235 35.1875C754.235 33.1875 753.058 32.1875 750.704 32.1875H749.454C747.849 32.1875 746.547 33.4887 746.547 35.0938ZM770.704 15.625C770.704 13.9681 772.047 12.625 773.704 12.625H780.422C782.079 12.625 783.422 13.9681 783.422 15.625V42.8125C783.422 44.4694 782.079 45.8125 780.422 45.8125H773.704C772.047 45.8125 770.704 44.4694 770.704 42.8125V15.625Z" fill="white"/>
</svg>
