<svg width="512" height="60" viewBox="0 0 512 60" fill="none" xmlns="http://www.w3.org/2000/svg">
<path d="M39.5057 42.5102C40.4953 44.5043 39.0446 46.8438 36.8184 46.8438H27.6333C26.4657 46.8438 25.4042 46.1663 24.9124 45.1073L20.2188 35C18.9062 32.2083 17.8854 30.4688 17.1562 29.7812C17.0852 29.7122 17.0115 29.6466 16.9352 29.5843C15.6511 28.5372 14.125 30.0619 14.125 31.7188V43.8438C14.125 45.5006 12.7819 46.8438 11.125 46.8438H3C1.34315 46.8438 0 45.5006 0 43.8438V4.03125C0 2.37439 1.34315 1.03125 3 1.03125H11.125C12.7819 1.03125 14.125 2.3744 14.125 4.03125V15.4686C14.125 17.1853 15.7916 18.6682 16.9348 17.3875C16.9568 17.3629 16.9785 17.3379 17 17.3125C17.6875 16.5 18.7604 14.1667 20.2188 10.3125C21.2812 7.45833 22.3542 5.41667 23.4375 4.1875C24.5208 2.9375 26.2812 2.04167 28.7188 1.5C30.6614 1.0683 33.4841 0.808626 37.1867 0.720986C38.8431 0.68178 40.1875 2.03065 40.1875 3.6875V9.65625C40.1875 10.0532 39.8657 10.375 39.4688 10.375C37.0521 10.375 35.2604 10.8333 34.0938 11.75C32.9271 12.6667 31.9688 14.1562 31.2188 16.2188C30.4688 18.2604 29.6562 19.7917 28.7812 20.8125C27.8286 21.9278 27.8822 24.3364 29.0351 25.2432C29.5819 25.6734 30.1015 26.1548 30.5938 26.6875C32.1146 28.3125 33.7292 30.8542 35.4375 34.3125L39.5057 42.5102Z" fill="#0A0A0A"/>
<path d="M50.9009 22.2981C50.0428 23.3962 48.8397 24.3029 47.4537 24.1568L40.9863 23.4752C39.2119 23.2882 37.9408 21.5762 38.6415 19.9354C38.9353 19.2474 39.2657 18.6439 39.6325 18.125C40.5075 16.8958 41.7575 15.8333 43.3825 14.9375C44.5492 14.2917 46.1533 13.7917 48.195 13.4375C50.2367 13.0833 52.445 12.9062 54.82 12.9062C58.6325 12.9062 61.695 13.125 64.0075 13.5625C66.32 13.9792 68.2471 14.8646 69.7887 16.2188C70.8721 17.1562 71.7262 18.4896 72.3512 20.2188C72.9762 21.9271 73.2887 23.5625 73.2887 25.125V39.7812C73.2887 41.3438 73.3825 42.5729 73.57 43.4688C73.9585 45.1006 72.9322 46.8438 71.2548 46.8438H64.7019C63.6168 46.8438 62.5735 46.2769 62.15 45.2779C62.0919 45.1407 62.0444 45.0168 62.0075 44.9062C61.731 44.0373 60.6528 43.6466 59.9357 44.21C58.8195 45.0868 57.708 45.7564 56.6012 46.2188C54.3512 47.1354 51.7367 47.5938 48.7575 47.5938C44.7992 47.5938 41.7887 46.6771 39.7262 44.8438C37.6846 43.0104 36.6637 40.75 36.6637 38.0625C36.6637 35.5417 37.4033 33.4688 38.8825 31.8438C40.3617 30.2188 43.0908 29.0104 47.07 28.2188C51.8408 27.2604 54.9346 26.5938 56.3512 26.2188C57.185 25.9858 58.0476 25.7132 58.939 25.4008C60.1014 24.9936 60.9574 23.8478 60.6011 22.6688C60.4397 22.1345 60.2002 21.7137 59.8825 21.4062C59.2367 20.7812 58.1012 20.4688 56.4762 20.4688C54.3929 20.4688 52.8304 20.8021 51.7887 21.4688C51.4685 21.674 51.1726 21.9505 50.9009 22.2981ZM60.8512 33.125C60.8512 32.1351 59.87 31.4429 58.9265 31.7424C57.7749 32.108 56.5936 32.4439 55.3825 32.75C52.7992 33.4375 51.1637 34.1146 50.4762 34.7812C49.7679 35.4688 49.4137 36.25 49.4137 37.125C49.4137 38.125 49.7575 38.9479 50.445 39.5938C51.1533 40.2188 52.1846 40.5312 53.5387 40.5312C54.9554 40.5312 56.2679 40.1875 57.4762 39.5C58.7054 38.8125 59.57 37.9792 60.07 37C60.5908 36 60.8512 34.7083 60.8512 33.125Z" fill="#0A0A0A"/>
<path d="M107.417 42.2908C108.626 44.2902 107.187 46.8438 104.85 46.8438H97.6289C96.5202 46.8438 95.5019 46.2323 94.9809 45.2536L90.9525 37.6875C90.1817 36.2292 89.4212 35.3125 88.6712 34.9375C87.2949 34.2296 85.9525 35.6297 85.9525 37.1774V43.8438C85.9525 45.5006 84.6094 46.8438 82.9525 46.8438H76.2337C74.5769 46.8438 73.2337 45.5006 73.2337 43.8438V16.6875C73.2337 15.0306 74.5769 13.6875 76.2337 13.6875H82.9525C84.6094 13.6875 85.9525 15.0306 85.9525 16.6875V23.0605C85.9525 24.4503 87.3605 25.6802 88.265 24.625C88.765 24.0417 89.4837 22.7604 90.4212 20.7812C91.3796 18.8021 92.2337 17.3542 92.9837 16.4375C93.7337 15.5208 94.6921 14.8333 95.8587 14.375C97.0254 13.9167 98.4837 13.625 100.234 13.5C101.435 13.4142 103.039 13.3578 105.046 13.3309C106.703 13.3087 108.046 14.6556 108.046 16.3125V21.7812C108.046 22.0919 107.794 22.3438 107.484 22.3438C105.775 22.3438 104.473 22.4167 103.577 22.5625C102.682 22.6875 101.963 22.9688 101.421 23.4062C100.88 23.8438 100.255 24.7396 99.5462 26.0938C98.8379 27.4479 98.2442 28.3958 97.765 28.9375C97.498 29.2409 97.6365 30.2975 98.0258 30.4061C98.7203 30.6 99.3105 30.85 99.7962 31.1562C100.755 31.7396 102.202 33.6458 104.14 36.875L107.417 42.2908Z" fill="#0A0A0A"/>
<path d="M166.374 43.8438C166.374 45.5006 165.031 46.8438 163.374 46.8438H158.624C156.967 46.8438 155.624 45.5006 155.624 43.8438V42.437C155.624 39.1021 150.998 38.2562 149.818 41.3753L148.482 44.9054C148.041 46.072 146.924 46.8438 145.676 46.8438H142.105C140.888 46.8438 139.791 46.108 139.329 44.9816L137.337 40.1218C136.09 37.0786 131.561 37.9707 131.561 41.2596V43.8438C131.561 45.5006 130.218 46.8438 128.561 46.8438H123.811C122.154 46.8438 120.811 45.5006 120.811 43.8438V16.6875C120.811 15.0306 122.154 13.6875 123.811 13.6875H133.998C135.21 13.6875 136.302 14.416 136.768 15.5343L141.047 25.8103C142.088 28.3125 145.651 28.2596 146.619 25.7275L150.48 15.617C150.924 14.4551 152.039 13.6875 153.283 13.6875H163.374C165.031 13.6875 166.374 15.0306 166.374 16.6875V43.8438Z" fill="#0A0A0A"/>
<path d="M180.069 22.4688C180.069 24.1256 181.412 25.4688 183.069 25.4688H185.881C195.694 25.4688 200.6 29.0521 200.6 36.2188C200.6 43.3021 195.819 46.8438 186.256 46.8438H170.319C168.662 46.8438 167.319 45.5006 167.319 43.8438V16.6875C167.319 15.0306 168.662 13.6875 170.319 13.6875H177.069C178.726 13.6875 180.069 15.0306 180.069 16.6875V22.4688ZM180.069 36.125C180.069 37.7301 181.37 39.0312 182.975 39.0312H184.225C185.267 39.0312 186.11 38.7917 186.756 38.3125C187.423 37.8333 187.756 37.1354 187.756 36.2188C187.756 34.2188 186.579 33.2188 184.225 33.2188H182.975C181.37 33.2188 180.069 34.5199 180.069 36.125ZM204.225 16.6562C204.225 14.9994 205.568 13.6562 207.225 13.6562H213.944C215.601 13.6562 216.944 14.9994 216.944 16.6562V43.8438C216.944 45.5006 215.601 46.8438 213.944 46.8438H207.225C205.568 46.8438 204.225 45.5006 204.225 43.8438V16.6562Z" fill="#0A0A0A"/>
<path d="M234.146 59.4688C232.489 59.4688 231.146 58.1256 231.146 56.4688V16.6562C231.146 14.9994 232.489 13.6562 234.146 13.6562H241.78C242.483 13.6562 243.053 14.2258 243.053 14.9285C243.053 16.1319 244.618 16.6979 245.508 15.8879C246.231 15.2297 246.923 14.7254 247.584 14.375C249.438 13.3958 251.49 12.9062 253.74 12.9062C258.177 12.9062 261.605 14.6042 264.021 18C266.459 21.3958 267.677 25.5938 267.677 30.5938C267.677 36.1146 266.355 40.3333 263.709 43.25C261.063 46.1458 257.719 47.5938 253.678 47.5938C251.719 47.5938 249.928 47.2604 248.303 46.5938C246.531 45.8577 243.99 46.9794 243.99 48.8975V56.4688C243.99 58.1256 242.647 59.4688 240.99 59.4688H234.146ZM243.896 30.3438C243.896 32.9688 244.448 34.9167 245.553 36.1875C246.657 37.4583 248.053 38.0938 249.74 38.0938C251.219 38.0938 252.459 37.4896 253.459 36.2812C254.459 35.0521 254.959 32.9792 254.959 30.0625C254.959 27.375 254.438 25.4062 253.396 24.1562C252.355 22.8854 251.084 22.25 249.584 22.25C247.959 22.25 246.605 22.8854 245.521 24.1562C244.438 25.4271 243.896 27.4896 243.896 30.3438Z" fill="#0038FF"/>
<path d="M278.766 22.2981C277.908 23.3962 276.705 24.3029 275.319 24.1568L268.851 23.4752C267.077 23.2882 265.806 21.5762 266.507 19.9354C266.8 19.2474 267.131 18.6439 267.497 18.125C268.372 16.8958 269.622 15.8333 271.247 14.9375C272.414 14.2917 274.018 13.7917 276.06 13.4375C278.102 13.0833 280.31 12.9062 282.685 12.9062C286.497 12.9062 289.56 13.125 291.872 13.5625C294.185 13.9792 296.112 14.8646 297.654 16.2188C298.737 17.1562 299.591 18.4896 300.216 20.2188C300.841 21.9271 301.154 23.5625 301.154 25.125V39.7812C301.154 41.3438 301.247 42.5729 301.435 43.4688C301.824 45.1006 300.797 46.8438 299.12 46.8438H292.567C291.482 46.8438 290.438 46.2769 290.015 45.2779C289.957 45.1407 289.909 45.0168 289.872 44.9062C289.596 44.0373 288.518 43.6466 287.801 44.21C286.685 45.0868 285.573 45.7564 284.466 46.2188C282.216 47.1354 279.602 47.5938 276.622 47.5938C272.664 47.5938 269.654 46.6771 267.591 44.8438C265.55 43.0104 264.529 40.75 264.529 38.0625C264.529 35.5417 265.268 33.4688 266.747 31.8438C268.227 30.2188 270.956 29.0104 274.935 28.2188C279.706 27.2604 282.8 26.5938 284.216 26.2188C285.05 25.9858 285.913 25.7132 286.804 25.4008C287.966 24.9936 288.822 23.8478 288.466 22.6688C288.305 22.1345 288.065 21.7137 287.747 21.4062C287.102 20.7812 285.966 20.4688 284.341 20.4688C282.258 20.4688 280.695 20.8021 279.654 21.4688C279.334 21.674 279.038 21.9505 278.766 22.2981ZM288.716 33.125C288.716 32.1351 287.735 31.4429 286.792 31.7424C285.64 32.108 284.459 32.4439 283.247 32.75C280.664 33.4375 279.029 34.1146 278.341 34.7812C277.633 35.4688 277.279 36.25 277.279 37.125C277.279 38.125 277.622 38.9479 278.31 39.5938C279.018 40.2188 280.05 40.5312 281.404 40.5312C282.82 40.5312 284.133 40.1875 285.341 39.5C286.57 38.8125 287.435 37.9792 287.935 37C288.456 36 288.716 34.7083 288.716 33.125Z" fill="#0038FF"/>
<path d="M315.599 10.8438C314.132 11.4936 315.533 13.125 317.132 12.9922C317.571 12.9557 318.029 12.9375 318.505 12.9375C324.734 12.9375 329.474 14.5833 332.724 17.875C335.995 21.1458 337.63 25.2292 337.63 30.125C337.63 34.9792 336.005 39.1146 332.755 42.5312C329.526 45.9271 324.776 47.625 318.505 47.625C312.255 47.625 307.536 45.9167 304.349 42.5C301.161 39.0625 299.568 33.4688 299.568 25.7188C299.568 18.5521 300.943 12.7604 303.693 8.34375C306.443 3.92708 310.401 1.63542 315.568 1.46875L319.411 1.34375C321.169 1.2692 322.523 1.11569 323.475 0.883233C324.602 0.607786 325.839 0 327 0H332.193C333.849 0 335.256 1.36631 334.865 2.97638C333.864 7.09938 330.567 9.2635 324.974 9.46875C320.37 9.63542 317.245 10.0938 315.599 10.8438ZM318.568 38.9062C320.609 38.9062 322.172 38.1562 323.255 36.6562C324.359 35.1562 324.911 33.0104 324.911 30.2188C324.911 27.4479 324.349 25.3229 323.224 23.8438C322.099 22.3646 320.588 21.625 318.693 21.625C316.588 21.625 314.995 22.4375 313.911 24.0625C312.828 25.6667 312.286 27.7604 312.286 30.3438C312.286 33.0312 312.818 35.1354 313.88 36.6562C314.963 38.1562 316.526 38.9062 318.568 38.9062Z" fill="#0038FF"/>
<path d="M334.544 30.3438C334.544 25.2812 336.252 21.1146 339.669 17.8438C343.085 14.5521 347.7 12.9062 353.513 12.9062C360.158 12.9062 365.179 14.8333 368.575 18.6875C371.304 21.7917 372.669 25.6146 372.669 30.1562C372.669 35.2604 370.971 39.4479 367.575 42.7188C364.2 45.9688 359.523 47.5938 353.544 47.5938C348.21 47.5938 343.898 46.2396 340.606 43.5312C336.565 40.1771 334.544 35.7812 334.544 30.3438ZM347.294 30.3125C347.294 33.2708 347.888 35.4583 349.075 36.875C350.283 38.2917 351.794 39 353.606 39C355.44 39 356.94 38.3021 358.106 36.9062C359.294 35.5104 359.888 33.2708 359.888 30.1875C359.888 27.3125 359.294 25.1771 358.106 23.7812C356.919 22.3646 355.45 21.6562 353.7 21.6562C351.846 21.6562 350.315 22.375 349.106 23.8125C347.898 25.2292 347.294 27.3958 347.294 30.3125Z" fill="#0038FF"/>
<path d="M399.082 19.9688C399.082 21.6256 397.739 22.9688 396.082 22.9688H392.864C391.207 22.9688 389.864 24.3119 389.864 25.9688V43.8438C389.864 45.5006 388.521 46.8438 386.864 46.8438H380.114C378.457 46.8438 377.114 45.5006 377.114 43.8438V25.9688C377.114 24.3119 375.771 22.9688 374.114 22.9688H370.895C369.238 22.9688 367.895 21.6256 367.895 19.9688V16.6875C367.895 15.0306 369.238 13.6875 370.895 13.6875H396.082C397.739 13.6875 399.082 15.0306 399.082 16.6875V19.9688Z" fill="#0038FF"/>
<path d="M408.608 22.2981C407.75 23.3962 406.547 24.3029 405.161 24.1568L398.694 23.4752C396.919 23.2882 395.648 21.5762 396.349 19.9354C396.643 19.2474 396.973 18.6439 397.34 18.125C398.215 16.8958 399.465 15.8333 401.09 14.9375C402.257 14.2917 403.861 13.7917 405.902 13.4375C407.944 13.0833 410.152 12.9062 412.527 12.9062C416.34 12.9062 419.402 13.125 421.715 13.5625C424.027 13.9792 425.955 14.8646 427.496 16.2188C428.58 17.1562 429.434 18.4896 430.059 20.2188C430.684 21.9271 430.996 23.5625 430.996 25.125V39.7812C430.996 41.3438 431.09 42.5729 431.277 43.4688C431.666 45.1006 430.64 46.8438 428.962 46.8438H422.409C421.324 46.8438 420.281 46.2769 419.858 45.2779C419.799 45.1407 419.752 45.0168 419.715 44.9062C419.439 44.0373 418.36 43.6466 417.643 44.21C416.527 45.0868 415.416 45.7564 414.309 46.2188C412.059 47.1354 409.444 47.5938 406.465 47.5938C402.507 47.5938 399.496 46.6771 397.434 44.8438C395.392 43.0104 394.371 40.75 394.371 38.0625C394.371 35.5417 395.111 33.4688 396.59 31.8438C398.069 30.2188 400.798 29.0104 404.777 28.2188C409.548 27.2604 412.642 26.5938 414.059 26.2188C414.892 25.9858 415.755 25.7132 416.646 25.4008C417.809 24.9936 418.665 23.8478 418.309 22.6688C418.147 22.1345 417.908 21.7137 417.59 21.4062C416.944 20.7812 415.809 20.4688 414.184 20.4688C412.1 20.4688 410.538 20.8021 409.496 21.4688C409.176 21.674 408.88 21.9505 408.608 22.2981ZM418.559 33.125C418.559 32.1351 417.577 31.4429 416.634 31.7424C415.482 32.108 414.301 32.4439 413.09 32.75C410.507 33.4375 408.871 34.1146 408.184 34.7812C407.475 35.4688 407.121 36.25 407.121 37.125C407.121 38.125 407.465 38.9479 408.152 39.5938C408.861 40.2188 409.892 40.5312 411.246 40.5312C412.663 40.5312 413.975 40.1875 415.184 39.5C416.413 38.8125 417.277 37.9792 417.777 37C418.298 36 418.559 34.7083 418.559 33.125Z" fill="#0038FF"/>
<path d="M467.785 31.9688C467.785 32.7627 467.141 33.4062 466.348 33.4062H445.641C443.851 33.4062 442.356 35.0204 443.103 36.6464C443.339 37.1583 443.618 37.5991 443.941 37.9688C445.17 39.4062 446.775 40.125 448.754 40.125C450.004 40.125 451.191 39.8125 452.316 39.1875C452.68 38.9779 453.059 38.6836 453.452 38.3046C454.182 37.6009 455.144 37.1499 456.154 37.2431L462.411 37.8204C464.587 38.0213 465.815 40.4216 464.356 42.0499C463.075 43.4809 461.665 44.6101 460.129 45.4375C457.42 46.875 453.535 47.5938 448.473 47.5938C444.077 47.5938 440.618 46.9792 438.098 45.75C435.577 44.5 433.483 42.5312 431.816 39.8438C430.17 37.1354 429.348 33.9583 429.348 30.3125C429.348 25.125 431.004 20.9271 434.316 17.7188C437.65 14.5104 442.243 12.9062 448.098 12.9062C452.848 12.9062 456.598 13.625 459.348 15.0625C462.098 16.5 464.191 18.5833 465.629 21.3125C467.066 24.0417 467.785 27.5938 467.785 31.9688ZM451.527 27.3125C453.304 27.3125 454.778 25.7353 454.133 24.0793C453.804 23.2312 453.375 22.5485 452.848 22.0312C451.785 20.9688 450.379 20.4375 448.629 20.4375C446.608 20.4375 444.993 21.2396 443.785 22.8438C443.514 23.1953 443.278 23.6075 443.076 24.0801C442.378 25.7185 443.868 27.3125 445.649 27.3125H451.527Z" fill="#0038FF"/>
<path d="M511.949 43.8438C511.949 45.5006 510.606 46.8438 508.949 46.8438H504.199C502.542 46.8438 501.199 45.5006 501.199 43.8438V42.437C501.199 39.1021 496.573 38.2562 495.393 41.3753L494.057 44.9054C493.616 46.072 492.499 46.8438 491.251 46.8438H487.68C486.463 46.8438 485.366 46.108 484.904 44.9816L482.912 40.1218C481.665 37.0786 477.136 37.9707 477.136 41.2596V43.8438C477.136 45.5006 475.793 46.8438 474.136 46.8438H469.386C467.729 46.8438 466.386 45.5006 466.386 43.8438V16.6875C466.386 15.0306 467.729 13.6875 469.386 13.6875H479.573C480.785 13.6875 481.877 14.416 482.343 15.5343L486.622 25.8103C487.664 28.3125 491.226 28.2596 492.194 25.7275L496.055 15.617C496.499 14.4551 497.614 13.6875 498.858 13.6875H508.949C510.606 13.6875 511.949 15.0306 511.949 16.6875V43.8438Z" fill="#0038FF"/>
</svg>
