<svg width="375" height="60" viewBox="0 0 375 60" fill="none" xmlns="http://www.w3.org/2000/svg">
<path d="M43.8125 43.5938C43.8125 45.2506 42.4694 46.5938 40.8125 46.5938H32.6875C31.0306 46.5938 29.6875 45.2506 29.6875 43.5938V15.0312C29.6875 13.3744 28.3444 12.0312 26.6875 12.0312H17.125C15.4681 12.0312 14.125 13.3744 14.125 15.0312V43.5938C14.125 45.2506 12.7819 46.5938 11.125 46.5938H3C1.34315 46.5938 0 45.2506 0 43.5938V3.78125C0 2.12439 1.34315 0.78125 3 0.78125H40.8125C42.4694 0.78125 43.8125 2.1244 43.8125 3.78125V43.5938Z" fill="black"/>
<path d="M47.7887 59.2188C46.1319 59.2188 44.7887 57.8756 44.7887 56.2188V16.4062C44.7887 14.7494 46.1319 13.4062 47.7887 13.4062H55.4228C56.1254 13.4062 56.695 13.9758 56.695 14.6785C56.695 15.8819 58.2603 16.4479 59.1503 15.6379C59.8736 14.9797 60.5655 14.4754 61.2262 14.125C63.0804 13.1458 65.1325 12.6562 67.3825 12.6562C71.82 12.6562 75.2471 14.3542 77.6637 17.75C80.1012 21.1458 81.32 25.3438 81.32 30.3438C81.32 35.8646 79.9971 40.0833 77.3512 43C74.7054 45.8958 71.3617 47.3438 67.32 47.3438C65.3617 47.3438 63.57 47.0104 61.945 46.3438C60.1738 45.6077 57.6325 46.7294 57.6325 48.6475V56.2188C57.6325 57.8756 56.2894 59.2188 54.6325 59.2188H47.7887ZM57.5387 30.0938C57.5387 32.7188 58.0908 34.6667 59.195 35.9375C60.2992 37.2083 61.695 37.8438 63.3825 37.8438C64.8617 37.8438 66.1012 37.2396 67.1012 36.0312C68.1012 34.8021 68.6012 32.7292 68.6012 29.8125C68.6012 27.125 68.0804 25.1562 67.0387 23.9062C65.9971 22.6354 64.7262 22 63.2262 22C61.6012 22 60.2471 22.6354 59.1637 23.9062C58.0804 25.1771 57.5387 27.2396 57.5387 30.0938Z" fill="black"/>
<path d="M116.796 43.5938C116.796 45.2506 115.453 46.5938 113.796 46.5938H107.765C106.108 46.5938 104.765 45.2506 104.765 43.5938V39.1285C104.765 36.2612 101.128 35.0278 99.3837 37.3038L93.1656 45.4185C92.5979 46.1593 91.7177 46.5938 90.7843 46.5938H83.1712C81.5144 46.5938 80.1712 45.2506 80.1712 43.5938V16.4375C80.1712 14.7806 81.5144 13.4375 83.1712 13.4375H89.2025C90.8594 13.4375 92.2025 14.7806 92.2025 16.4375V21.0978C92.2025 23.9676 95.8449 25.1994 97.5867 22.9186L103.927 14.6167C104.495 13.8735 105.376 13.4375 106.311 13.4375H113.796C115.453 13.4375 116.796 14.7806 116.796 16.4375V43.5938Z" fill="black"/>
<path d="M142.272 28.8714C142.272 28.9089 142.301 28.9403 142.339 28.9442C144.828 29.2021 146.806 30.0332 148.272 31.4375C149.772 32.8542 150.522 34.75 150.522 37.125C150.522 40.2917 149.481 42.6667 147.397 44.25C145.314 45.8125 141.575 46.5938 136.179 46.5938H120.241C118.584 46.5938 117.241 45.2506 117.241 43.5938V16.4375C117.241 14.7806 118.584 13.4375 120.241 13.4375H137.71C141.418 13.4375 144.241 14.1458 146.179 15.5625C148.137 16.9792 149.116 18.9583 149.116 21.5C149.116 23.2917 148.481 24.8542 147.21 26.1875C145.951 27.4875 144.325 28.3583 142.33 28.7999C142.297 28.8073 142.272 28.837 142.272 28.8714ZM129.96 23.4375C129.96 24.8872 131.135 26.0625 132.585 26.0625H133.179C135.304 26.0625 136.366 25.0938 136.366 23.1562C136.366 21.5938 135.241 20.8125 132.991 20.8125H132.585C131.135 20.8125 129.96 21.9878 129.96 23.4375ZM129.96 35.875C129.96 37.4801 131.261 38.7812 132.866 38.7812H134.147C135.189 38.7812 136.033 38.5417 136.679 38.0625C137.325 37.5833 137.647 36.8854 137.647 35.9688C137.647 33.9688 136.481 32.9688 134.147 32.9688H132.866C131.261 32.9688 129.96 34.2699 129.96 35.875Z" fill="black"/>
<path d="M185.78 31.7188C185.78 32.5127 185.136 33.1562 184.342 33.1562H163.636C161.846 33.1562 160.351 34.7704 161.098 36.3964C161.334 36.9083 161.613 37.3491 161.936 37.7188C163.165 39.1562 164.77 39.875 166.749 39.875C167.999 39.875 169.186 39.5625 170.311 38.9375C170.675 38.7279 171.054 38.4336 171.447 38.0546C172.177 37.3509 173.139 36.8999 174.149 36.9931L180.406 37.5704C182.582 37.7713 183.81 40.1716 182.351 41.7999C181.07 43.2309 179.66 44.3601 178.124 45.1875C175.415 46.625 171.53 47.3438 166.467 47.3438C162.072 47.3438 158.613 46.7292 156.092 45.5C153.572 44.25 151.478 42.2812 149.811 39.5938C148.165 36.8854 147.342 33.7083 147.342 30.0625C147.342 24.875 148.999 20.6771 152.311 17.4688C155.645 14.2604 160.238 12.6562 166.092 12.6562C170.842 12.6562 174.592 13.375 177.342 14.8125C180.092 16.25 182.186 18.3333 183.624 21.0625C185.061 23.7917 185.78 27.3438 185.78 31.7188ZM169.522 27.0625C171.299 27.0625 172.773 25.4853 172.128 23.8293C171.799 22.9812 171.37 22.2985 170.842 21.7812C169.78 20.7188 168.374 20.1875 166.624 20.1875C164.603 20.1875 162.988 20.9896 161.78 22.5938C161.509 22.9453 161.273 23.3575 161.071 23.8301C160.373 25.4685 161.863 27.0625 163.644 27.0625H169.522Z" fill="black"/>
<path d="M211.913 19.7188C211.913 21.3756 210.569 22.7188 208.913 22.7188H205.694C204.037 22.7188 202.694 24.0619 202.694 25.7188V43.5938C202.694 45.2506 201.351 46.5938 199.694 46.5938H192.944C191.287 46.5938 189.944 45.2506 189.944 43.5938V25.7188C189.944 24.0619 188.601 22.7188 186.944 22.7188H183.725C182.068 22.7188 180.725 21.3756 180.725 19.7188V16.4375C180.725 14.7806 182.068 13.4375 183.725 13.4375H208.913C210.569 13.4375 211.913 14.7806 211.913 16.4375V19.7188Z" fill="black"/>
<path d="M208.795 36.9688C208.795 35.3119 210.138 33.9688 211.795 33.9688H219.389C221.046 33.9688 222.389 35.3119 222.389 36.9688V44.4375C222.389 48.2917 221.587 51.3333 219.982 53.5625C218.748 55.2776 216.842 56.8386 214.263 58.2454C212.885 58.9972 211.192 58.3983 210.453 57.0136L210.287 56.7014C209.476 55.183 210.134 53.3338 211.579 52.3982C212.54 51.7759 213.268 51.1536 213.764 50.5312C213.998 50.2494 214.205 49.9539 214.386 49.6449C215.265 48.1457 213.82 46.5938 212.082 46.5938H211.795C210.138 46.5938 208.795 45.2506 208.795 43.5938V36.9688Z" fill="black"/>
<path d="M268.341 43.5938C268.341 45.2506 266.998 46.5938 265.341 46.5938H258.622C256.966 46.5938 255.622 45.2506 255.622 43.5938V34.1875C255.622 33.9286 255.413 33.7188 255.154 33.7188C254.258 33.7188 253.55 33.9688 253.029 34.4688C252.529 34.9479 252.018 35.6875 251.497 36.6875L247.241 44.9656C246.727 45.9653 245.697 46.5938 244.573 46.5938H237.228C234.983 46.5938 233.533 44.2175 234.561 42.2209L237.247 37C237.335 36.8291 237.424 36.6627 237.514 36.5011C238.065 35.5186 237.535 29.8561 236.841 28.9688C235.445 27.1354 234.747 25.1354 234.747 22.9688C234.747 20.8229 235.279 18.9271 236.341 17.2812C237.425 15.6146 238.987 14.5625 241.029 14.125C243.091 13.6667 245.685 13.4375 248.81 13.4375H265.341C266.998 13.4375 268.341 14.7806 268.341 16.4375V43.5938ZM253.029 26.1875C254.461 26.1875 255.622 25.0262 255.622 23.5938C255.622 22.1613 254.461 21 253.029 21H251.654C249.779 21 248.612 21.2292 248.154 21.6875C247.695 22.125 247.466 22.75 247.466 23.5625C247.466 25.3125 249.008 26.1875 252.091 26.1875H253.029Z" fill="black"/>
<path d="M284.285 12.7032C282.631 12.0748 281.86 10.1402 282.871 8.68836C286.907 2.89612 293.392 0 302.325 0C309.971 0 315.846 2.04167 319.95 6.125C324.075 10.2083 326.138 15.9583 326.138 23.375C326.138 31.1042 324.106 37.0417 320.044 41.1875C315.981 45.3125 310.273 47.375 302.919 47.375C296.294 47.375 291.2 46.0729 287.638 43.4688C284.954 41.4915 282.879 39.0768 281.413 36.2248C280.621 34.684 281.584 32.8991 283.257 32.4476L290.597 30.4662C292.192 30.0356 293.78 31.0132 294.58 32.4586C296.164 35.3195 298.766 36.75 302.388 36.75C306.659 36.75 309.487 34.9294 310.869 31.2882C311.512 29.5938 310.06 27.9688 308.248 27.9688H300.856C299.199 27.9688 297.856 26.6256 297.856 24.9688V22.4688C297.856 20.8119 299.199 19.4688 300.856 19.4688H308.241C310.077 19.4688 311.533 17.8034 310.852 16.0978C309.396 12.4493 306.553 10.625 302.325 10.625C299.262 10.625 296.946 11.6504 295.377 13.7011C294.36 15.0298 292.671 15.8889 291.106 15.2947L284.285 12.7032Z" fill="#0038FF"/>
<path d="M374.207 53.5625C374.207 55.2194 372.864 56.5625 371.207 56.5625H365.801C364.144 56.5625 362.801 55.2194 362.801 53.5625V49.5938C362.801 47.9369 361.458 46.5938 359.801 46.5938H336.551C334.894 46.5938 333.551 47.9369 333.551 49.5938V53.5625C333.551 55.2194 332.208 56.5625 330.551 56.5625H325.176C323.519 56.5625 322.176 55.2194 322.176 53.5625V38.8C322.176 37.2708 323.416 36.0312 324.945 36.0312C326.115 36.0312 327.164 35.2985 327.522 34.1851C329.75 27.255 330.864 19.5266 330.864 11V3.78125C330.864 2.1244 332.207 0.78125 333.864 0.78125H366.27C367.927 0.78125 369.27 2.1244 369.27 3.78125V33.5625C369.27 34.926 370.375 36.0312 371.739 36.0312C373.102 36.0312 374.207 37.1365 374.207 38.5V53.5625ZM352.114 36.0312C353.771 36.0312 355.114 34.6881 355.114 33.0312V15.0312C355.114 13.3744 353.771 12.0312 352.114 12.0312H344.332C344.005 12.0312 343.739 12.2971 343.739 12.625C343.739 18.1005 342.937 24.6739 341.333 32.3451C340.938 34.2343 342.364 36.0312 344.294 36.0312H352.114Z" fill="#0038FF"/>
</svg>
