<svg width="576" height="60" viewBox="0 0 576 60" fill="none" xmlns="http://www.w3.org/2000/svg">
<path d="M40.8125 1.03125C42.4694 1.03125 43.8125 2.3744 43.8125 4.03125V43.8438C43.8125 45.5006 42.4694 46.8438 40.8125 46.8438H33.5C31.8431 46.8438 30.5 45.5006 30.5 43.8438V31.4109C30.5 28.459 26.6847 27.2818 25.0215 29.7206L14.237 45.534C13.6781 46.3535 12.7503 46.8438 11.7585 46.8438H3C1.34315 46.8438 0 45.5006 0 43.8438V4.03125C0 2.37439 1.34315 1.03125 3 1.03125H10.3438C12.0006 1.03125 13.3438 2.3744 13.3438 4.03125V16.6357C13.3438 19.589 17.162 20.7652 18.8238 18.3237L29.7008 2.34323C30.2594 1.52246 31.188 1.03125 32.1808 1.03125H40.8125Z" fill="#0A0A0A"/>
<path d="M79.732 26.1673C78.8028 27.8528 78.9276 31.1766 80.195 32.625C81.3617 33.9375 81.945 35.3958 81.945 37C81.945 40.4583 80.2887 43.0938 76.9762 44.9062C73.6637 46.7188 68.8304 47.625 62.4762 47.625C57.1429 47.625 52.945 46.6458 49.8825 44.6875C47.7897 43.3257 46.0963 41.4955 44.8024 39.1967C43.8607 37.5239 45.099 35.5801 47.0069 35.3681L53.0241 34.6995C54.4063 34.546 55.6829 35.419 56.634 36.4336C57.0045 36.8289 57.4415 37.2052 57.945 37.5625C59.2575 38.4583 60.7471 38.9062 62.4137 38.9062C66.6846 38.9062 68.82 37.8438 68.82 35.7188C68.82 34.9896 68.4137 34.4062 67.6012 33.9688C66.7887 33.5104 65.7262 33.2812 64.4137 33.2812H61.8825C60.2256 33.2812 58.8825 31.9381 58.8825 30.2812V29.75C58.8825 28.0931 60.2256 26.75 61.8825 26.75H64.5387C65.6429 26.75 66.6533 26.5208 67.57 26.0625C68.4867 25.6042 68.945 25.0208 68.945 24.3125C68.945 23.5208 68.4033 22.875 67.32 22.375C66.2575 21.875 64.7679 21.625 62.8512 21.625C60.9762 21.625 59.3929 22.0208 58.1012 22.8125C57.7046 23.0492 57.3522 23.3006 57.044 23.5667C55.9475 24.5136 54.5896 25.4519 53.154 25.2567L47.404 24.4747C45.5735 24.2257 44.3738 22.3721 45.2659 20.7544C46.4609 18.5873 48.104 16.888 50.195 15.6562C53.2367 13.8438 57.4346 12.9375 62.7887 12.9375C68.3512 12.9375 72.7054 13.8438 75.8512 15.6562C79.0179 17.4688 80.6012 19.7604 80.6012 22.5312C80.6012 23.904 80.3115 25.1161 79.732 26.1673Z" fill="#0A0A0A"/>
<path d="M95.015 10.8438C93.5483 11.4936 94.9496 13.125 96.5483 12.9922C96.9877 12.9557 97.4454 12.9375 97.9212 12.9375C104.15 12.9375 108.89 14.5833 112.14 17.875C115.411 21.1458 117.046 25.2292 117.046 30.125C117.046 34.9792 115.421 39.1146 112.171 42.5312C108.942 45.9271 104.192 47.625 97.9212 47.625C91.6712 47.625 86.9525 45.9167 83.765 42.5C80.5775 39.0625 78.9837 33.4688 78.9837 25.7188C78.9837 18.5521 80.3587 12.7604 83.1087 8.34375C85.8587 3.92708 89.8171 1.63542 94.9837 1.46875L98.8275 1.34375C100.585 1.2692 101.939 1.11569 102.891 0.883233C104.018 0.607786 105.255 0 106.416 0H111.609C113.266 0 114.672 1.36631 114.281 2.97638C113.28 7.09938 109.983 9.2635 104.39 9.46875C99.7858 9.63542 96.6608 10.0938 95.015 10.8438ZM97.9837 38.9062C100.025 38.9062 101.588 38.1562 102.671 36.6562C103.775 35.1562 104.327 33.0104 104.327 30.2188C104.327 27.4479 103.765 25.3229 102.64 23.8438C101.515 22.3646 100.005 21.625 98.1087 21.625C96.0046 21.625 94.4108 22.4375 93.3275 24.0625C92.2442 25.6667 91.7025 27.7604 91.7025 30.3438C91.7025 33.0312 92.2337 35.1354 93.2962 36.6562C94.3796 38.1562 95.9421 38.9062 97.9837 38.9062Z" fill="#0A0A0A"/>
<path d="M118.585 59.4688C116.928 59.4688 115.585 58.1256 115.585 56.4688V16.6562C115.585 14.9994 116.928 13.6562 118.585 13.6562H126.219C126.922 13.6562 127.491 14.2258 127.491 14.9285C127.491 16.1319 129.057 16.6979 129.947 15.8879C130.67 15.2297 131.362 14.7254 132.022 14.375C133.877 13.3958 135.929 12.9062 138.179 12.9062C142.616 12.9062 146.043 14.6042 148.46 18C150.897 21.3958 152.116 25.5938 152.116 30.5938C152.116 36.1146 150.793 40.3333 148.147 43.25C145.502 46.1458 142.158 47.5938 138.116 47.5938C136.158 47.5938 134.366 47.2604 132.741 46.5938C130.97 45.8577 128.429 46.9794 128.429 48.8975V56.4688C128.429 58.1256 127.086 59.4688 125.429 59.4688H118.585ZM128.335 30.3438C128.335 32.9688 128.887 34.9167 129.991 36.1875C131.095 37.4583 132.491 38.0938 134.179 38.0938C135.658 38.0938 136.897 37.4896 137.897 36.2812C138.897 35.0521 139.397 32.9792 139.397 30.0625C139.397 27.375 138.877 25.4062 137.835 24.1562C136.793 22.8854 135.522 22.25 134.022 22.25C132.397 22.25 131.043 22.8854 129.96 24.1562C128.877 25.4271 128.335 27.4896 128.335 30.3438Z" fill="#0A0A0A"/>
<path d="M163.205 22.2981C162.347 23.3962 161.143 24.3029 159.757 24.1568L153.29 23.4752C151.516 23.2882 150.245 21.5762 150.945 19.9354C151.239 19.2474 151.569 18.6439 151.936 18.125C152.811 16.8958 154.061 15.8333 155.686 14.9375C156.853 14.2917 158.457 13.7917 160.499 13.4375C162.54 13.0833 164.749 12.9062 167.124 12.9062C170.936 12.9062 173.999 13.125 176.311 13.5625C178.624 13.9792 180.551 14.8646 182.092 16.2188C183.176 17.1562 184.03 18.4896 184.655 20.2188C185.28 21.9271 185.592 23.5625 185.592 25.125V39.7812C185.592 41.3438 185.686 42.5729 185.874 43.4688C186.262 45.1006 185.236 46.8438 183.559 46.8438H177.006C175.921 46.8438 174.877 46.2769 174.454 45.2779C174.396 45.1407 174.348 45.0168 174.311 44.9062C174.035 44.0373 172.957 43.6466 172.239 44.21C171.123 45.0868 170.012 45.7564 168.905 46.2188C166.655 47.1354 164.04 47.5938 161.061 47.5938C157.103 47.5938 154.092 46.6771 152.03 44.8438C149.988 43.0104 148.967 40.75 148.967 38.0625C148.967 35.5417 149.707 33.4688 151.186 31.8438C152.665 30.2188 155.395 29.0104 159.374 28.2188C164.145 27.2604 167.238 26.5938 168.655 26.2188C169.489 25.9858 170.351 25.7132 171.243 25.4008C172.405 24.9936 173.261 23.8478 172.905 22.6688C172.743 22.1345 172.504 21.7137 172.186 21.4062C171.54 20.7812 170.405 20.4688 168.78 20.4688C166.697 20.4688 165.134 20.8021 164.092 21.4688C163.772 21.674 163.476 21.9505 163.205 22.2981ZM173.155 33.125C173.155 32.1351 172.174 31.4429 171.23 31.7424C170.079 32.108 168.897 32.4439 167.686 32.75C165.103 33.4375 163.467 34.1146 162.78 34.7812C162.072 35.4688 161.717 36.25 161.717 37.125C161.717 38.125 162.061 38.9479 162.749 39.5938C163.457 40.2188 164.488 40.5312 165.842 40.5312C167.259 40.5312 168.572 40.1875 169.78 39.5C171.009 38.8125 171.874 37.9792 172.374 37C172.895 36 173.155 34.7083 173.155 33.125Z" fill="#0A0A0A"/>
<path d="M223.038 43.8438C223.038 45.5006 221.694 46.8438 220.038 46.8438H213.288C211.631 46.8438 210.288 45.5006 210.288 43.8438V37.3125C210.288 35.6556 208.944 34.3125 207.288 34.3125H201.725C200.068 34.3125 198.725 35.6556 198.725 37.3125V43.8438C198.725 45.5006 197.382 46.8438 195.725 46.8438H188.975C187.318 46.8438 185.975 45.5006 185.975 43.8438V16.6875C185.975 15.0306 187.318 13.6875 188.975 13.6875H195.725C197.382 13.6875 198.725 15.0306 198.725 16.6875V22.0312C198.725 23.6881 200.068 25.0312 201.725 25.0312H207.288C208.944 25.0312 210.288 23.6881 210.288 22.0312V16.6875C210.288 15.0306 211.631 13.6875 213.288 13.6875H220.038C221.694 13.6875 223.038 15.0306 223.038 16.6875V43.8438Z" fill="#0A0A0A"/>
<path d="M260.982 43.8438C260.982 45.5006 259.639 46.8438 257.982 46.8438H251.232C249.576 46.8438 248.232 45.5006 248.232 43.8438V37.3125C248.232 35.6556 246.889 34.3125 245.232 34.3125H239.67C238.013 34.3125 236.67 35.6556 236.67 37.3125V43.8438C236.67 45.5006 235.327 46.8438 233.67 46.8438H226.92C225.263 46.8438 223.92 45.5006 223.92 43.8438V16.6875C223.92 15.0306 225.263 13.6875 226.92 13.6875H233.67C235.327 13.6875 236.67 15.0306 236.67 16.6875V22.0312C236.67 23.6881 238.013 25.0312 239.67 25.0312H245.232C246.889 25.0312 248.232 23.6881 248.232 22.0312V16.6875C248.232 15.0306 249.576 13.6875 251.232 13.6875H257.982C259.639 13.6875 260.982 15.0306 260.982 16.6875V43.8438Z" fill="#0A0A0A"/>
<path d="M274.615 22.4688C274.615 24.1256 275.958 25.4688 277.615 25.4688H280.427C290.24 25.4688 295.146 29.0521 295.146 36.2188C295.146 43.3021 290.365 46.8438 280.802 46.8438H264.865C263.208 46.8438 261.865 45.5006 261.865 43.8438V16.6875C261.865 15.0306 263.208 13.6875 264.865 13.6875H271.615C273.272 13.6875 274.615 15.0306 274.615 16.6875V22.4688ZM274.615 36.125C274.615 37.7301 275.916 39.0312 277.521 39.0312H278.771C279.813 39.0312 280.657 38.7917 281.302 38.3125C281.969 37.8333 282.302 37.1354 282.302 36.2188C282.302 34.2188 281.125 33.2188 278.771 33.2188H277.521C275.916 33.2188 274.615 34.5199 274.615 36.125ZM298.771 16.6562C298.771 14.9994 300.114 13.6562 301.771 13.6562H308.49C310.147 13.6562 311.49 14.9994 311.49 16.6562V43.8438C311.49 45.5006 310.147 46.8438 308.49 46.8438H301.771C300.114 46.8438 298.771 45.5006 298.771 43.8438V16.6562Z" fill="#0A0A0A"/>
<path d="M348.779 31.9688C348.779 32.7627 348.135 33.4062 347.341 33.4062H326.634C324.845 33.4062 323.35 35.0204 324.097 36.6464C324.332 37.1583 324.612 37.5991 324.935 37.9688C326.164 39.4062 327.768 40.125 329.747 40.125C330.997 40.125 332.185 39.8125 333.31 39.1875C333.674 38.9779 334.053 38.6836 334.446 38.3046C335.176 37.6009 336.138 37.1499 337.147 37.2431L343.404 37.8204C345.581 38.0213 346.809 40.4216 345.35 42.0499C344.068 43.4809 342.659 44.6101 341.122 45.4375C338.414 46.875 334.529 47.5938 329.466 47.5938C325.07 47.5938 321.612 46.9792 319.091 45.75C316.57 44.5 314.477 42.5312 312.81 39.8438C311.164 37.1354 310.341 33.9583 310.341 30.3125C310.341 25.125 311.997 20.9271 315.31 17.7188C318.643 14.5104 323.237 12.9062 329.091 12.9062C333.841 12.9062 337.591 13.625 340.341 15.0625C343.091 16.5 345.185 18.5833 346.622 21.3125C348.06 24.0417 348.779 27.5938 348.779 31.9688ZM332.521 27.3125C334.298 27.3125 335.771 25.7353 335.127 24.0793C334.797 23.2312 334.369 22.5485 333.841 22.0312C332.779 20.9688 331.372 20.4375 329.622 20.4375C327.602 20.4375 325.987 21.2396 324.779 22.8438C324.508 23.1953 324.271 23.6075 324.07 24.0801C323.372 25.7185 324.861 27.3125 326.642 27.3125H332.521Z" fill="#0A0A0A"/>
<path d="M363.7 59.4688C362.043 59.4688 360.7 58.1256 360.7 56.4688V16.6562C360.7 14.9994 362.043 13.6562 363.7 13.6562H371.334C372.037 13.6562 372.606 14.2258 372.606 14.9285C372.606 16.1319 374.172 16.6979 375.062 15.8879C375.785 15.2297 376.477 14.7254 377.138 14.375C378.992 13.3958 381.044 12.9062 383.294 12.9062C387.731 12.9062 391.158 14.6042 393.575 18C396.013 21.3958 397.231 25.5938 397.231 30.5938C397.231 36.1146 395.908 40.3333 393.263 43.25C390.617 46.1458 387.273 47.5938 383.231 47.5938C381.273 47.5938 379.481 47.2604 377.856 46.5938C376.085 45.8577 373.544 46.9794 373.544 48.8975V56.4688C373.544 58.1256 372.201 59.4688 370.544 59.4688H363.7ZM373.45 30.3438C373.45 32.9688 374.002 34.9167 375.106 36.1875C376.21 37.4583 377.606 38.0938 379.294 38.0938C380.773 38.0938 382.013 37.4896 383.013 36.2812C384.013 35.0521 384.513 32.9792 384.513 30.0625C384.513 27.375 383.992 25.4062 382.95 24.1562C381.908 22.8854 380.638 22.25 379.138 22.25C377.513 22.25 376.158 22.8854 375.075 24.1562C373.992 25.4271 373.45 27.4896 373.45 30.3438Z" fill="#0038FF"/>
<path d="M408.32 22.2981C407.462 23.3962 406.258 24.3029 404.872 24.1568L398.405 23.4752C396.631 23.2882 395.36 21.5762 396.06 19.9354C396.354 19.2474 396.684 18.6439 397.051 18.125C397.926 16.8958 399.176 15.8333 400.801 14.9375C401.968 14.2917 403.572 13.7917 405.614 13.4375C407.655 13.0833 409.864 12.9062 412.239 12.9062C416.051 12.9062 419.114 13.125 421.426 13.5625C423.739 13.9792 425.666 14.8646 427.207 16.2188C428.291 17.1562 429.145 18.4896 429.77 20.2188C430.395 21.9271 430.707 23.5625 430.707 25.125V39.7812C430.707 41.3438 430.801 42.5729 430.989 43.4688C431.377 45.1006 430.351 46.8438 428.673 46.8438H422.121C421.036 46.8438 419.992 46.2769 419.569 45.2779C419.511 45.1407 419.463 45.0168 419.426 44.9062C419.15 44.0373 418.072 43.6466 417.354 44.21C416.238 45.0868 415.127 45.7564 414.02 46.2188C411.77 47.1354 409.155 47.5938 406.176 47.5938C402.218 47.5938 399.207 46.6771 397.145 44.8438C395.103 43.0104 394.082 40.75 394.082 38.0625C394.082 35.5417 394.822 33.4688 396.301 31.8438C397.78 30.2188 400.51 29.0104 404.489 28.2188C409.26 27.2604 412.353 26.5938 413.77 26.2188C414.604 25.9858 415.466 25.7132 416.358 25.4008C417.52 24.9936 418.376 23.8478 418.02 22.6688C417.858 22.1345 417.619 21.7137 417.301 21.4062C416.655 20.7812 415.52 20.4688 413.895 20.4688C411.812 20.4688 410.249 20.8021 409.207 21.4688C408.887 21.674 408.591 21.9505 408.32 22.2981ZM418.27 33.125C418.27 32.1351 417.289 31.4429 416.345 31.7424C415.194 32.108 414.012 32.4439 412.801 32.75C410.218 33.4375 408.582 34.1146 407.895 34.7812C407.187 35.4688 406.832 36.25 406.832 37.125C406.832 38.125 407.176 38.9479 407.864 39.5938C408.572 40.2188 409.603 40.5312 410.957 40.5312C412.374 40.5312 413.687 40.1875 414.895 39.5C416.124 38.8125 416.989 37.9792 417.489 37C418.01 36 418.27 34.7083 418.27 33.125Z" fill="#0038FF"/>
<path d="M445.152 10.8438C443.686 11.4936 445.087 13.125 446.686 12.9922C447.125 12.9557 447.583 12.9375 448.059 12.9375C454.288 12.9375 459.027 14.5833 462.277 17.875C465.548 21.1458 467.184 25.2292 467.184 30.125C467.184 34.9792 465.559 39.1146 462.309 42.5312C459.08 45.9271 454.33 47.625 448.059 47.625C441.809 47.625 437.09 45.9167 433.902 42.5C430.715 39.0625 429.121 33.4688 429.121 25.7188C429.121 18.5521 430.496 12.7604 433.246 8.34375C435.996 3.92708 439.955 1.63542 445.121 1.46875L448.965 1.34375C450.722 1.2692 452.077 1.11569 453.028 0.883233C454.156 0.607786 455.393 0 456.553 0H461.746C463.403 0 464.81 1.36631 464.419 2.97638C463.418 7.09938 460.12 9.2635 454.527 9.46875C449.923 9.63542 446.798 10.0938 445.152 10.8438ZM448.121 38.9062C450.163 38.9062 451.725 38.1562 452.809 36.6562C453.913 35.1562 454.465 33.0104 454.465 30.2188C454.465 27.4479 453.902 25.3229 452.777 23.8438C451.652 22.3646 450.142 21.625 448.246 21.625C446.142 21.625 444.548 22.4375 443.465 24.0625C442.382 25.6667 441.84 27.7604 441.84 30.3438C441.84 33.0312 442.371 35.1354 443.434 36.6562C444.517 38.1562 446.08 38.9062 448.121 38.9062Z" fill="#0038FF"/>
<path d="M464.098 30.3438C464.098 25.2812 465.806 21.1146 469.223 17.8438C472.639 14.5521 477.254 12.9062 483.066 12.9062C489.712 12.9062 494.733 14.8333 498.129 18.6875C500.858 21.7917 502.223 25.6146 502.223 30.1562C502.223 35.2604 500.525 39.4479 497.129 42.7188C493.754 45.9688 489.077 47.5938 483.098 47.5938C477.764 47.5938 473.452 46.2396 470.16 43.5312C466.118 40.1771 464.098 35.7812 464.098 30.3438ZM476.848 30.3125C476.848 33.2708 477.441 35.4583 478.629 36.875C479.837 38.2917 481.348 39 483.16 39C484.993 39 486.493 38.3021 487.66 36.9062C488.848 35.5104 489.441 33.2708 489.441 30.1875C489.441 27.3125 488.848 25.1771 487.66 23.7812C486.473 22.3646 485.004 21.6562 483.254 21.6562C481.4 21.6562 479.868 22.375 478.66 23.8125C477.452 25.2292 476.848 27.3958 476.848 30.3125Z" fill="#0038FF"/>
<path d="M528.636 19.9688C528.636 21.6256 527.293 22.9688 525.636 22.9688H522.417C520.761 22.9688 519.417 24.3119 519.417 25.9688V43.8438C519.417 45.5006 518.074 46.8438 516.417 46.8438H509.668C508.011 46.8438 506.668 45.5006 506.668 43.8438V25.9688C506.668 24.3119 505.324 22.9688 503.668 22.9688H500.449C498.792 22.9688 497.449 21.6256 497.449 19.9688V16.6875C497.449 15.0306 498.792 13.6875 500.449 13.6875H525.636C527.293 13.6875 528.636 15.0306 528.636 16.6875V19.9688Z" fill="#0038FF"/>
<path d="M538.675 22.4688C538.675 24.1256 540.018 25.4688 541.675 25.4688H544.487C554.3 25.4688 559.206 29.0521 559.206 36.2188C559.206 43.3021 554.425 46.8438 544.862 46.8438H528.925C527.268 46.8438 525.925 45.5006 525.925 43.8438V16.6875C525.925 15.0306 527.268 13.6875 528.925 13.6875H535.675C537.332 13.6875 538.675 15.0306 538.675 16.6875V22.4688ZM538.675 36.125C538.675 37.7301 539.976 39.0312 541.581 39.0312H542.831C543.873 39.0312 544.717 38.7917 545.362 38.3125C546.029 37.8333 546.362 37.1354 546.362 36.2188C546.362 34.2188 545.185 33.2188 542.831 33.2188H541.581C539.976 33.2188 538.675 34.5199 538.675 36.125ZM562.831 16.6562C562.831 14.9994 564.174 13.6562 565.831 13.6562H572.55C574.207 13.6562 575.55 14.9994 575.55 16.6562V43.8438C575.55 45.5006 574.207 46.8438 572.55 46.8438H565.831C564.174 46.8438 562.831 45.5006 562.831 43.8438V16.6562Z" fill="#0038FF"/>
</svg>
