<svg width="382" height="60" viewBox="0 0 382 60" fill="none" xmlns="http://www.w3.org/2000/svg">
<path d="M0 3C0 1.34314 1.34315 0 3 0H11.1562C12.8131 0 14.1562 1.34315 14.1562 3V13.0312C14.1562 14.6881 15.4994 16.0312 17.1562 16.0312H26.625C28.2819 16.0312 29.625 14.6881 29.625 13.0312V3C29.625 1.34315 30.9681 0 32.625 0H40.8438C42.5006 0 43.8438 1.34315 43.8438 3V42.8125C43.8438 44.4694 42.5006 45.8125 40.8438 45.8125H32.625C30.9681 45.8125 29.625 44.4694 29.625 42.8125V30.2812C29.625 28.6244 28.2819 27.2812 26.625 27.2812H17.1562C15.4994 27.2812 14.1562 28.6244 14.1562 30.2812V42.8125C14.1562 44.4694 12.8131 45.8125 11.1562 45.8125H3C1.34315 45.8125 0 44.4694 0 42.8125V3Z" fill="#0A0A0A"/>
<path d="M57.4009 21.2668C56.5428 22.365 55.3397 23.2717 53.9537 23.1256L47.4863 22.4439C45.7119 22.2569 44.4408 20.5449 45.1415 18.9042C45.4353 18.2162 45.7657 17.6127 46.1325 17.0938C47.0075 15.8646 48.2575 14.8021 49.8825 13.9062C51.0492 13.2604 52.6533 12.7604 54.695 12.4062C56.7367 12.0521 58.945 11.875 61.32 11.875C65.1325 11.875 68.195 12.0938 70.5075 12.5312C72.82 12.9479 74.7471 13.8333 76.2887 15.1875C77.3721 16.125 78.2262 17.4583 78.8512 19.1875C79.4762 20.8958 79.7887 22.5312 79.7887 24.0938V38.75C79.7887 40.3125 79.8825 41.5417 80.07 42.4375C80.4585 44.0693 79.4322 45.8125 77.7548 45.8125H71.2019C70.1168 45.8125 69.0735 45.2457 68.65 44.2466C68.5919 44.1094 68.5444 43.9856 68.5075 43.875C68.231 43.006 67.1528 42.6154 66.4357 43.1787C65.3195 44.0556 64.208 44.7252 63.1012 45.1875C60.8512 46.1042 58.2367 46.5625 55.2575 46.5625C51.2992 46.5625 48.2887 45.6458 46.2262 43.8125C44.1846 41.9792 43.1637 39.7188 43.1637 37.0312C43.1637 34.5104 43.9033 32.4375 45.3825 30.8125C46.8617 29.1875 49.5908 27.9792 53.57 27.1875C58.3408 26.2292 61.4346 25.5625 62.8512 25.1875C63.685 24.9545 64.5475 24.6819 65.439 24.3696C66.6014 23.9623 67.4574 22.8166 67.1011 21.6375C66.9397 21.1033 66.7002 20.6824 66.3825 20.375C65.7367 19.75 64.6012 19.4375 62.9762 19.4375C60.8929 19.4375 59.3304 19.7708 58.2887 20.4375C57.9685 20.6428 57.6726 20.9192 57.4009 21.2668ZM67.3512 32.0938C67.3512 31.1038 66.37 30.4116 65.4265 30.7112C64.2749 31.0768 63.0936 31.4126 61.8825 31.7188C59.2992 32.4062 57.6637 33.0833 56.9762 33.75C56.2679 34.4375 55.9137 35.2188 55.9137 36.0938C55.9137 37.0938 56.2575 37.9167 56.945 38.5625C57.6533 39.1875 58.6846 39.5 60.0387 39.5C61.4554 39.5 62.7679 39.1562 63.9762 38.4688C65.2054 37.7812 66.07 36.9479 66.57 35.9688C67.0908 34.9688 67.3512 33.6771 67.3512 32.0938Z" fill="#0A0A0A"/>
<path d="M131.952 42.8125C131.952 44.4694 130.609 45.8125 128.952 45.8125H82.5462C80.8894 45.8125 79.5462 44.4694 79.5462 42.8125V15.6562C79.5462 13.9994 80.8894 12.6562 82.5462 12.6562H89.265C90.9219 12.6562 92.265 13.9994 92.265 15.6562V33.5312C92.265 35.1881 93.6081 36.5312 95.265 36.5312H96.39C98.0469 36.5312 99.39 35.1881 99.39 33.5312V15.6562C99.39 13.9994 100.733 12.6562 102.39 12.6562H109.109C110.766 12.6562 112.109 13.9994 112.109 15.6562V33.5312C112.109 35.1881 113.452 36.5312 115.109 36.5312H116.202C117.859 36.5312 119.202 35.1881 119.202 33.5312V15.6562C119.202 13.9994 120.546 12.6562 122.202 12.6562H128.952C130.609 12.6562 131.952 13.9994 131.952 15.6562V42.8125Z" fill="#0A0A0A"/>
<path d="M169.866 42.8125C169.866 44.4694 168.523 45.8125 166.866 45.8125H160.835C159.178 45.8125 157.835 44.4694 157.835 42.8125V38.3473C157.835 35.4799 154.198 34.2466 152.454 36.5225L146.236 44.6372C145.668 45.3781 144.788 45.8125 143.854 45.8125H136.241C134.584 45.8125 133.241 44.4694 133.241 42.8125V15.6562C133.241 13.9994 134.584 12.6562 136.241 12.6562H142.273C143.929 12.6562 145.273 13.9994 145.273 15.6562V20.3165C145.273 23.1863 148.915 24.4181 150.657 22.1374L156.997 13.8354C157.565 13.0923 158.446 12.6562 159.381 12.6562H166.866C168.523 12.6562 169.866 13.9994 169.866 15.6562V42.8125Z" fill="#0A0A0A"/>
<path d="M182.066 16.7866C181.236 14.8095 182.688 12.625 184.832 12.625H191.545C192.86 12.625 194.021 13.4813 194.411 14.7373L197.625 25.1156C198.507 27.9628 202.552 27.9208 203.374 25.0559L206.32 14.7971C206.689 13.511 207.866 12.625 209.204 12.625H215.163C217.253 12.625 218.702 14.7087 217.975 16.6683L206.319 48.0938C204.819 52.1354 203.288 54.8646 201.725 56.2812C199.517 58.2812 196.152 59.2812 191.631 59.2812C190.192 59.2812 188.136 59.1271 185.464 58.8189C184.093 58.6608 183.023 57.5676 182.868 56.1963L182.649 54.2537C182.406 52.0938 184.503 50.3396 186.672 50.4808C187.188 50.5144 187.716 50.5312 188.256 50.5312C189.756 50.5312 190.965 50.1875 191.881 49.5C192.613 48.9634 193.256 48.0969 193.81 46.9004C194.128 46.2143 194.094 45.4252 193.801 44.728L182.066 16.7866Z" fill="#0038FF"/>
<path d="M239.185 35.0844C239.953 33.8742 241.228 32.9605 242.652 33.1224L248.846 33.8266C250.664 34.0333 251.898 35.8245 251.109 37.4756C250.536 38.6752 249.837 39.7771 249.014 40.7812C247.493 42.6146 245.545 44.0417 243.17 45.0625C240.816 46.0833 237.816 46.5938 234.17 46.5938C230.649 46.5938 227.712 46.2708 225.357 45.625C223.024 44.9583 221.014 43.8958 219.326 42.4375C217.639 40.9583 216.316 39.2292 215.357 37.25C214.399 35.2708 213.92 32.6458 213.92 29.375C213.92 25.9583 214.503 23.1146 215.67 20.8438C216.524 19.1771 217.691 17.6875 219.17 16.375C220.649 15.0417 222.17 14.0521 223.732 13.4062C226.212 12.3854 229.389 11.875 233.264 11.875C238.68 11.875 242.805 12.8438 245.639 14.7812C247.589 16.1053 249.141 17.8478 250.294 20.0087C251.166 21.645 249.965 23.5042 248.126 23.749L242.29 24.5261C240.792 24.7255 239.479 23.6832 238.511 22.5231C238.245 22.2045 237.944 21.9259 237.607 21.6875C236.628 20.9583 235.305 20.5938 233.639 20.5938C231.535 20.5938 229.826 21.3542 228.514 22.875C227.222 24.375 226.576 26.6562 226.576 29.7188C226.576 32.4479 227.222 34.5208 228.514 35.9375C229.805 37.3542 231.451 38.0625 233.451 38.0625C235.118 38.0625 236.514 37.6354 237.639 36.7812C238.232 36.3387 238.748 35.7731 239.185 35.0844Z" fill="#0038FF"/>
<path d="M288.584 42.8125C288.584 44.4694 287.241 45.8125 285.584 45.8125H278.865C277.208 45.8125 275.865 44.4694 275.865 42.8125V24.9375C275.865 23.2806 274.522 21.9375 272.865 21.9375H269.209C267.552 21.9375 266.209 23.2806 266.209 24.9375V35.8438C266.209 39.5521 265.448 42.3021 263.927 44.0938C262.427 45.8854 260.115 46.7812 256.99 46.7812C254.4 46.7812 252.005 46.6085 249.804 46.2631C248.423 46.0462 247.459 44.8215 247.459 43.4233V39.9228C247.459 38.1739 249.147 37.0938 250.896 37.0938C252.605 37.0938 253.459 35.8229 253.459 33.2812V15.6562C253.459 13.9994 254.802 12.6562 256.459 12.6562H285.584C287.241 12.6562 288.584 13.9994 288.584 15.6562V42.8125Z" fill="#0038FF"/>
<path d="M286.651 16.7866C285.821 14.8095 287.273 12.625 289.417 12.625H296.13C297.445 12.625 298.607 13.4813 298.996 14.7373L302.21 25.1156C303.092 27.9628 307.137 27.9208 307.96 25.0559L310.905 14.7971C311.274 13.511 312.451 12.625 313.789 12.625H319.747C321.838 12.625 323.287 14.7087 322.56 16.6683L310.904 48.0938C309.404 52.1354 307.872 54.8646 306.31 56.2812C304.102 58.2812 300.737 59.2812 296.216 59.2812C294.777 59.2812 292.721 59.1271 290.049 58.8189C288.678 58.6608 287.608 57.5676 287.453 56.1963L287.234 54.2537C286.991 52.0938 289.088 50.3396 291.257 50.4808C291.773 50.5144 292.301 50.5312 292.841 50.5312C294.341 50.5312 295.55 50.1875 296.466 49.5C297.198 48.9634 297.841 48.0969 298.395 46.9004C298.713 46.2143 298.679 45.4252 298.386 44.728L286.651 16.7866Z" fill="#0038FF"/>
<path d="M347.349 18.9375C347.349 20.5944 346.006 21.9375 344.349 21.9375H336.224C334.567 21.9375 333.224 23.2806 333.224 24.9375V42.8125C333.224 44.4694 331.881 45.8125 330.224 45.8125H323.474C321.817 45.8125 320.474 44.4694 320.474 42.8125V15.6562C320.474 13.9994 321.817 12.6562 323.474 12.6562H344.349C346.006 12.6562 347.349 13.9994 347.349 15.6562V18.9375Z" fill="#0038FF"/>
<path d="M381.919 42.8125C381.919 44.4694 380.576 45.8125 378.919 45.8125H372.888C371.231 45.8125 369.888 44.4694 369.888 42.8125V38.3473C369.888 35.4799 366.25 34.2466 364.506 36.5225L358.288 44.6372C357.72 45.3781 356.84 45.8125 355.907 45.8125H348.294C346.637 45.8125 345.294 44.4694 345.294 42.8125V15.6562C345.294 13.9994 346.637 12.6562 348.294 12.6562H354.325C355.982 12.6562 357.325 13.9994 357.325 15.6562V20.3165C357.325 23.1863 360.967 24.4181 362.709 22.1374L369.049 13.8354C369.617 13.0923 370.499 12.6562 371.434 12.6562H378.919C380.576 12.6562 381.919 13.9994 381.919 15.6562V42.8125Z" fill="#0038FF"/>
</svg>
