<svg width="495" height="59" viewBox="0 0 495 59" fill="none" xmlns="http://www.w3.org/2000/svg">
<path d="M42.5625 42.8125C42.5625 44.4694 41.2194 45.8125 39.5625 45.8125H31.4062C29.7494 45.8125 28.4062 44.4694 28.4062 42.8125V33.8679C28.4062 31.5832 25.9369 30.1243 23.7916 30.9102C21.1261 31.8867 18.5497 32.375 16.0625 32.375C11.3958 32.375 7.55208 31 4.53125 28.25C1.51042 25.4792 0 21.6875 0 16.875V3C0 1.34315 1.34315 0 3 0H11.1562C12.8131 0 14.1562 1.34315 14.1562 3V14.0625C14.1562 16.2917 14.6875 18.0104 15.75 19.2188C16.8125 20.4271 18.3438 21.0312 20.3438 21.0312C23.599 21.0312 26.0676 20.1804 27.7496 18.4787C28.2081 18.0149 28.4062 17.3659 28.4062 16.7137V3C28.4062 1.34315 29.7494 0 31.4062 0H39.5625C41.2194 0 42.5625 1.34315 42.5625 3V42.8125Z" fill="#0A0A0A"/>
<path d="M56.1197 21.2668C55.2615 22.365 54.0585 23.2717 52.6725 23.1256L46.205 22.4439C44.4307 22.2569 43.1595 20.5449 43.8603 18.9042C44.1541 18.2162 44.4844 17.6127 44.8512 17.0938C45.7262 15.8646 46.9762 14.8021 48.6012 13.9062C49.7679 13.2604 51.3721 12.7604 53.4137 12.4062C55.4554 12.0521 57.6637 11.875 60.0387 11.875C63.8512 11.875 66.9137 12.0938 69.2262 12.5312C71.5387 12.9479 73.4658 13.8333 75.0075 15.1875C76.0908 16.125 76.945 17.4583 77.57 19.1875C78.195 20.8958 78.5075 22.5312 78.5075 24.0938V38.75C78.5075 40.3125 78.6012 41.5417 78.7887 42.4375C79.1773 44.0693 78.1509 45.8125 76.4735 45.8125H69.9206C68.8356 45.8125 67.7922 45.2457 67.3688 44.2466C67.3106 44.1094 67.2631 43.9856 67.2262 43.875C66.9498 43.006 65.8716 42.6154 65.1544 43.1787C64.0383 44.0556 62.9268 44.7252 61.82 45.1875C59.57 46.1042 56.9554 46.5625 53.9762 46.5625C50.0179 46.5625 47.0075 45.6458 44.945 43.8125C42.9033 41.9792 41.8825 39.7188 41.8825 37.0312C41.8825 34.5104 42.6221 32.4375 44.1012 30.8125C45.5804 29.1875 48.3096 27.9792 52.2887 27.1875C57.0596 26.2292 60.1533 25.5625 61.57 25.1875C62.4037 24.9545 63.2663 24.6819 64.1577 24.3696C65.3202 23.9623 66.1761 22.8166 65.8199 21.6375C65.6585 21.1033 65.4189 20.6824 65.1012 20.375C64.4554 19.75 63.32 19.4375 61.695 19.4375C59.6117 19.4375 58.0492 19.7708 57.0075 20.4375C56.6873 20.6428 56.3914 20.9192 56.1197 21.2668ZM66.07 32.0938C66.07 31.1038 65.0888 30.4116 64.1453 30.7112C62.9937 31.0768 61.8123 31.4126 60.6012 31.7188C58.0179 32.4062 56.3825 33.0833 55.695 33.75C54.9867 34.4375 54.6325 35.2188 54.6325 36.0938C54.6325 37.0938 54.9762 37.9167 55.6637 38.5625C56.3721 39.1875 57.4033 39.5 58.7575 39.5C60.1742 39.5 61.4867 39.1562 62.695 38.4688C63.9242 37.7812 64.7887 36.9479 65.2887 35.9688C65.8096 34.9688 66.07 33.6771 66.07 32.0938Z" fill="#0A0A0A"/>
<path d="M102.186 35.0844C102.954 33.8742 104.229 32.9605 105.654 33.1224L111.847 33.8266C113.665 34.0333 114.899 35.8245 114.11 37.4756C113.537 38.6752 112.839 39.7771 112.015 40.7812C110.494 42.6146 108.546 44.0417 106.171 45.0625C103.817 46.0833 100.817 46.5938 97.1712 46.5938C93.6504 46.5938 90.7129 46.2708 88.3587 45.625C86.0254 44.9583 84.015 43.8958 82.3275 42.4375C80.64 40.9583 79.3171 39.2292 78.3587 37.25C77.4004 35.2708 76.9212 32.6458 76.9212 29.375C76.9212 25.9583 77.5046 23.1146 78.6712 20.8438C79.5254 19.1771 80.6921 17.6875 82.1712 16.375C83.6504 15.0417 85.1712 14.0521 86.7337 13.4062C89.2129 12.3854 92.39 11.875 96.265 11.875C101.682 11.875 105.807 12.8438 108.64 14.7812C110.591 16.1053 112.142 17.8478 113.295 20.0087C114.168 21.645 112.966 23.5042 111.128 23.749L105.291 24.5261C103.794 24.7255 102.48 23.6832 101.512 22.5231C101.247 22.2045 100.945 21.9259 100.609 21.6875C99.6296 20.9583 98.3067 20.5938 96.64 20.5938C94.5358 20.5938 92.8275 21.3542 91.515 22.875C90.2233 24.375 89.5775 26.6562 89.5775 29.7188C89.5775 32.4479 90.2233 34.5208 91.515 35.9375C92.8067 37.3542 94.4525 38.0625 96.4525 38.0625C98.1192 38.0625 99.515 37.6354 100.64 36.7812C101.234 36.3387 101.749 35.7731 102.186 35.0844Z" fill="#0A0A0A"/>
<path d="M141.429 18.9375C141.429 20.5944 140.086 21.9375 138.429 21.9375H135.21C133.553 21.9375 132.21 23.2806 132.21 24.9375V42.8125C132.21 44.4694 130.867 45.8125 129.21 45.8125H122.46C120.803 45.8125 119.46 44.4694 119.46 42.8125V24.9375C119.46 23.2806 118.117 21.9375 116.46 21.9375H113.241C111.584 21.9375 110.241 20.5944 110.241 18.9375V15.6562C110.241 13.9994 111.584 12.6562 113.241 12.6562H138.429C140.086 12.6562 141.429 13.9994 141.429 15.6562V18.9375Z" fill="#0A0A0A"/>
<path d="M151.467 21.4375C151.467 23.0944 152.811 24.4375 154.467 24.4375H157.28C167.092 24.4375 171.999 28.0208 171.999 35.1875C171.999 42.2708 167.217 45.8125 157.655 45.8125H141.717C140.061 45.8125 138.717 44.4694 138.717 42.8125V15.6562C138.717 13.9994 140.061 12.6562 141.717 12.6562H148.467C150.124 12.6562 151.467 13.9994 151.467 15.6562V21.4375ZM151.467 35.0938C151.467 36.6988 152.769 38 154.374 38H155.624C156.665 38 157.509 37.7604 158.155 37.2812C158.822 36.8021 159.155 36.1042 159.155 35.1875C159.155 33.1875 157.978 32.1875 155.624 32.1875H154.374C152.769 32.1875 151.467 33.4887 151.467 35.0938ZM175.624 15.625C175.624 13.9681 176.967 12.625 178.624 12.625H185.342C186.999 12.625 188.342 13.9681 188.342 15.625V42.8125C188.342 44.4694 186.999 45.8125 185.342 45.8125H178.624C176.967 45.8125 175.624 44.4694 175.624 42.8125V15.625Z" fill="#0A0A0A"/>
<path d="M225.631 30.9375C225.631 31.7314 224.988 32.375 224.194 32.375H203.487C201.697 32.375 200.203 33.9891 200.95 35.6151C201.185 36.1271 201.464 36.5679 201.788 36.9375C203.017 38.375 204.621 39.0938 206.6 39.0938C207.85 39.0938 209.038 38.7812 210.163 38.1562C210.527 37.9467 210.905 37.6524 211.298 37.2734C212.029 36.5697 212.99 36.1187 214 36.2119L220.257 36.7892C222.434 36.99 223.661 39.3903 222.203 41.0186C220.921 42.4496 219.512 43.5788 217.975 44.4062C215.267 45.8438 211.381 46.5625 206.319 46.5625C201.923 46.5625 198.465 45.9479 195.944 44.7188C193.423 43.4688 191.329 41.5 189.663 38.8125C188.017 36.1042 187.194 32.9271 187.194 29.2812C187.194 24.0938 188.85 19.8958 192.163 16.6875C195.496 13.4792 200.09 11.875 205.944 11.875C210.694 11.875 214.444 12.5938 217.194 14.0312C219.944 15.4688 222.038 17.5521 223.475 20.2812C224.913 23.0104 225.631 26.5625 225.631 30.9375ZM209.373 26.2812C211.15 26.2812 212.624 24.7041 211.98 23.0481C211.65 22.2 211.221 21.5173 210.694 21C209.631 19.9375 208.225 19.4062 206.475 19.4062C204.454 19.4062 202.84 20.2083 201.631 21.8125C201.36 22.1641 201.124 22.5762 200.923 23.0488C200.224 24.6873 201.714 26.2812 203.495 26.2812H209.373Z" fill="#0A0A0A"/>
<path d="M262.521 28.0901C262.521 28.1277 262.55 28.1591 262.587 28.1629C265.077 28.4209 267.055 29.252 268.521 30.6562C270.021 32.0729 270.771 33.9688 270.771 36.3438C270.771 39.5104 269.73 41.8854 267.646 43.4688C265.563 45.0312 261.823 45.8125 256.427 45.8125H240.49C238.833 45.8125 237.49 44.4694 237.49 42.8125V15.6562C237.49 13.9994 238.833 12.6562 240.49 12.6562H257.959C261.667 12.6562 264.49 13.3646 266.427 14.7812C268.386 16.1979 269.365 18.1771 269.365 20.7188C269.365 22.5104 268.73 24.0729 267.459 25.4062C266.2 26.7062 264.573 27.577 262.579 28.0186C262.545 28.026 262.521 28.0558 262.521 28.0901ZM250.209 22.6562C250.209 24.106 251.384 25.2812 252.834 25.2812H253.428C255.553 25.2812 256.615 24.3125 256.615 22.375C256.615 20.8125 255.49 20.0312 253.24 20.0312H252.834C251.384 20.0312 250.209 21.2065 250.209 22.6562ZM250.209 35.0938C250.209 36.6988 251.51 38 253.115 38H254.396C255.438 38 256.282 37.7604 256.927 37.2812C257.573 36.8021 257.896 36.1042 257.896 35.1875C257.896 33.1875 256.73 32.1875 254.396 32.1875H253.115C251.51 32.1875 250.209 33.4887 250.209 35.0938Z" fill="#0038FF"/>
<path d="M267.622 29.3125C267.622 24.25 269.331 20.0833 272.747 16.8125C276.164 13.5208 280.779 11.875 286.591 11.875C293.237 11.875 298.258 13.8021 301.654 17.6562C304.383 20.7604 305.747 24.5833 305.747 29.125C305.747 34.2292 304.05 38.4167 300.654 41.6875C297.279 44.9375 292.602 46.5625 286.622 46.5625C281.289 46.5625 276.977 45.2083 273.685 42.5C269.643 39.1458 267.622 34.75 267.622 29.3125ZM280.372 29.2812C280.372 32.2396 280.966 34.4271 282.154 35.8438C283.362 37.2604 284.872 37.9688 286.685 37.9688C288.518 37.9688 290.018 37.2708 291.185 35.875C292.372 34.4792 292.966 32.2396 292.966 29.1562C292.966 26.2812 292.372 24.1458 291.185 22.75C289.997 21.3333 288.529 20.625 286.779 20.625C284.925 20.625 283.393 21.3438 282.185 22.7812C280.977 24.1979 280.372 26.3646 280.372 29.2812Z" fill="#0038FF"/>
<path d="M339.193 42.8125C339.193 44.4694 337.849 45.8125 336.193 45.8125H329.474C327.817 45.8125 326.474 44.4694 326.474 42.8125V24.9375C326.474 23.2806 325.131 21.9375 323.474 21.9375H319.786C318.129 21.9375 316.786 23.2806 316.786 24.9375V42.8125C316.786 44.4694 315.443 45.8125 313.786 45.8125H307.068C305.411 45.8125 304.068 44.4694 304.068 42.8125V15.6562C304.068 13.9994 305.411 12.6562 307.068 12.6562H336.193C337.849 12.6562 339.193 13.9994 339.193 15.6562V42.8125Z" fill="#0038FF"/>
<path d="M342.263 58.4375C340.606 58.4375 339.263 57.0944 339.263 55.4375V15.625C339.263 13.9681 340.606 12.625 342.263 12.625H349.897C350.599 12.625 351.169 13.1946 351.169 13.8972C351.169 15.1006 352.734 15.6667 353.624 14.8567C354.347 14.1984 355.039 13.6941 355.7 13.3438C357.554 12.3646 359.606 11.875 361.856 11.875C366.294 11.875 369.721 13.5729 372.138 16.9688C374.575 20.3646 375.794 24.5625 375.794 29.5625C375.794 35.0833 374.471 39.3021 371.825 42.2188C369.179 45.1146 365.835 46.5625 361.794 46.5625C359.835 46.5625 358.044 46.2292 356.419 45.5625C354.648 44.8264 352.106 45.9482 352.106 47.8663V55.4375C352.106 57.0944 350.763 58.4375 349.106 58.4375H342.263ZM352.013 29.3125C352.013 31.9375 352.565 33.8854 353.669 35.1562C354.773 36.4271 356.169 37.0625 357.856 37.0625C359.335 37.0625 360.575 36.4583 361.575 35.25C362.575 34.0208 363.075 31.9479 363.075 29.0312C363.075 26.3438 362.554 24.375 361.513 23.125C360.471 21.8542 359.2 21.2188 357.7 21.2188C356.075 21.2188 354.721 21.8542 353.638 23.125C352.554 24.3958 352.013 26.4583 352.013 29.3125Z" fill="#0038FF"/>
<path d="M372.645 29.3125C372.645 24.25 374.353 20.0833 377.77 16.8125C381.187 13.5208 385.801 11.875 391.614 11.875C398.26 11.875 403.28 13.8021 406.676 17.6562C409.405 20.7604 410.77 24.5833 410.77 29.125C410.77 34.2292 409.072 38.4167 405.676 41.6875C402.301 44.9375 397.624 46.5625 391.645 46.5625C386.312 46.5625 381.999 45.2083 378.707 42.5C374.666 39.1458 372.645 34.75 372.645 29.3125ZM385.395 29.2812C385.395 32.2396 385.989 34.4271 387.176 35.8438C388.385 37.2604 389.895 37.9688 391.707 37.9688C393.541 37.9688 395.041 37.2708 396.207 35.875C397.395 34.4792 397.989 32.2396 397.989 29.1562C397.989 26.2812 397.395 24.1458 396.207 22.75C395.02 21.3333 393.551 20.625 391.801 20.625C389.947 20.625 388.416 21.3438 387.207 22.7812C385.999 24.1979 385.395 26.3646 385.395 29.2812Z" fill="#0038FF"/>
<path d="M432.949 35.0844C433.717 33.8742 434.992 32.9605 436.416 33.1224L442.61 33.8266C444.428 34.0333 445.661 35.8245 444.873 37.4756C444.299 38.6752 443.601 39.7771 442.777 40.7812C441.257 42.6146 439.309 44.0417 436.934 45.0625C434.58 46.0833 431.58 46.5938 427.934 46.5938C424.413 46.5938 421.475 46.2708 419.121 45.625C416.788 44.9583 414.777 43.8958 413.09 42.4375C411.402 40.9583 410.08 39.2292 409.121 37.25C408.163 35.2708 407.684 32.6458 407.684 29.375C407.684 25.9583 408.267 23.1146 409.434 20.8438C410.288 19.1771 411.455 17.6875 412.934 16.375C414.413 15.0417 415.934 14.0521 417.496 13.4062C419.975 12.3854 423.152 11.875 427.027 11.875C432.444 11.875 436.569 12.8438 439.402 14.7812C441.353 16.1053 442.905 17.8478 444.057 20.0087C444.93 21.645 443.728 23.5042 441.89 23.749L436.054 24.5261C434.556 24.7255 433.242 23.6832 432.275 22.5231C432.009 22.2045 431.708 21.9259 431.371 21.6875C430.392 20.9583 429.069 20.5938 427.402 20.5938C425.298 20.5938 423.59 21.3542 422.277 22.875C420.986 24.375 420.34 26.6562 420.34 29.7188C420.34 32.4479 420.986 34.5208 422.277 35.9375C423.569 37.3542 425.215 38.0625 427.215 38.0625C428.882 38.0625 430.277 37.6354 431.402 36.7812C431.996 36.3387 432.512 35.7731 432.949 35.0844Z" fill="#0038FF"/>
<path d="M457.41 21.4375C457.41 23.0944 458.753 24.4375 460.41 24.4375H463.223C473.035 24.4375 477.941 28.0208 477.941 35.1875C477.941 42.2708 473.16 45.8125 463.598 45.8125H447.66C446.003 45.8125 444.66 44.4694 444.66 42.8125V15.6562C444.66 13.9994 446.003 12.6562 447.66 12.6562H454.41C456.067 12.6562 457.41 13.9994 457.41 15.6562V21.4375ZM457.41 35.0938C457.41 36.6988 458.711 38 460.316 38H461.566C462.608 38 463.452 37.7604 464.098 37.2812C464.764 36.8021 465.098 36.1042 465.098 35.1875C465.098 33.1875 463.92 32.1875 461.566 32.1875H460.316C458.711 32.1875 457.41 33.4887 457.41 35.0938ZM481.566 15.625C481.566 13.9681 482.909 12.625 484.566 12.625H491.285C492.942 12.625 494.285 13.9681 494.285 15.625V42.8125C494.285 44.4694 492.942 45.8125 491.285 45.8125H484.566C482.909 45.8125 481.566 44.4694 481.566 42.8125V15.625Z" fill="#0038FF"/>
</svg>
